<svg width="131" height="31" viewBox="0 0 131 31" fill="none" xmlns="http://www.w3.org/2000/svg">
<path d="M8.48829 22.4937C6.89531 22.4937 5.53708 22.1416 4.41361 21.4373C3.30691 20.733 2.46011 19.7353 1.87322 18.4442C1.28634 17.1363 0.992892 15.5936 0.992892 13.8162C0.992892 12.0555 1.31149 10.5296 1.94868 9.23843C2.60264 7.93051 3.52489 6.92441 4.71544 6.22015C5.92275 5.49911 7.35643 5.1386 9.01649 5.1386C10.5256 5.1386 11.8168 5.3985 12.8899 5.91832C13.9631 6.42136 14.7931 7.1424 15.38 8.08142C15.9669 9.00367 16.2604 10.1188 16.2604 11.4267V11.6027H13.393V11.4267C13.393 10.1355 13.0409 9.20489 12.3366 8.63477C11.6491 8.04788 10.5005 7.75444 8.89073 7.75444C7.71695 7.75444 6.75278 7.95566 5.99821 8.35809C5.26041 8.76053 4.72382 9.40611 4.38846 10.2948C4.05309 11.1835 3.88541 12.3573 3.88541 13.8162C3.88541 15.275 4.06148 16.4488 4.41361 17.3375C4.76574 18.2094 5.32748 18.8466 6.09882 19.2491C6.88692 19.6515 7.89302 19.8527 9.1171 19.8527C10.1567 19.8527 11.0119 19.7437 11.6826 19.5257C12.3534 19.3077 12.8564 18.9388 13.1918 18.419C13.5271 17.8992 13.6948 17.2033 13.6948 16.3314V15.5517H16.3107V15.9289L14.047 19.6012H13.6948C13.4936 20.121 13.1582 20.5989 12.6887 21.0349C12.236 21.4708 11.6575 21.823 10.9532 22.0913C10.2657 22.3596 9.44408 22.4937 8.48829 22.4937ZM16.3107 22.2422H13.8206V17.9663L13.6948 17.7148V14.0677H16.3107V22.2422ZM16.3107 15.9289H8.41283V13.5898H16.3107V15.9289ZM23.687 22.4937C22.6138 22.4937 21.7251 22.2757 21.0208 21.8398C20.3166 21.387 19.7968 20.7834 19.4614 20.0288C19.126 19.2574 18.9583 18.4023 18.9583 17.4632V9.74147H21.6748V16.9602C21.6748 18.0837 21.9096 18.8969 22.3791 19.4C22.8486 19.903 23.6199 20.1545 24.6931 20.1545C25.3973 20.1545 25.9926 20.0455 26.4789 19.8276C26.9652 19.5928 27.3341 19.2323 27.5856 18.746C27.8371 18.243 27.9629 17.589 27.9629 16.7841H28.6671V19.7521H28.0635C27.879 20.2216 27.594 20.666 27.2083 21.0852C26.8394 21.5044 26.3615 21.8481 25.7746 22.1164C25.2045 22.3679 24.5086 22.4937 23.687 22.4937ZM30.6793 22.2422H28.1641V18.4945L27.9629 18.3687V9.74147H30.6793V22.2422ZM38.4382 22.2422C37.0632 22.2422 36.0068 21.9487 35.269 21.3619C34.548 20.775 34.1875 19.7856 34.1875 18.3939V10.0181L34.8163 6.64774H36.9039V18.2681C36.9039 18.9221 37.0632 19.3413 37.3818 19.5257C37.7172 19.6934 38.3125 19.7773 39.1677 19.7773H40.6768V22.0158C40.4253 22.0829 40.0983 22.1416 39.6959 22.1919C39.2934 22.2254 38.8742 22.2422 38.4382 22.2422ZM40.6768 12.0052H32.0999V9.74147H40.6768V12.0052ZM63.5737 22.4937C62.2155 22.4937 61.0836 22.2254 60.1781 21.6888C59.2726 21.1355 58.6019 20.3725 58.1659 19.4C57.73 18.4106 57.512 17.2704 57.512 15.9793C57.512 14.6881 57.7551 13.5562 58.2414 12.5837C58.7444 11.6111 59.4487 10.8566 60.3542 10.32C61.2597 9.76663 62.3328 9.48995 63.5737 9.48995C64.6972 9.48995 65.6865 9.70794 66.5417 10.1439C67.4136 10.5631 68.0843 11.1752 68.5538 11.98C69.0401 12.7849 69.2833 13.7575 69.2833 14.8977C69.2833 15.2331 69.2665 15.56 69.233 15.8786C69.2162 16.1805 69.191 16.432 69.1575 16.6332H58.7947V14.8222H66.9441L66.6674 15.0738C66.7345 14.3024 66.6507 13.6736 66.4159 13.1873C66.1979 12.7011 65.8374 12.3405 65.3343 12.1058C64.8481 11.871 64.236 11.7537 63.4982 11.7537C62.1735 11.7537 61.2681 12.089 60.7818 12.7598C60.2955 13.4137 60.0524 14.3192 60.0524 15.4762V16.2308C60.0524 17.0692 60.153 17.7818 60.3542 18.3687C60.5722 18.9388 60.9411 19.3664 61.4609 19.6515C61.9807 19.9366 62.6934 20.0791 63.5988 20.0791C64.6552 20.0791 65.4014 19.9114 65.8374 19.576C66.2734 19.2407 66.4914 18.7963 66.4914 18.243V18.0417H69.1827V18.2681C69.1827 19.1233 68.9479 19.8695 68.4784 20.5067C68.0089 21.1271 67.3549 21.6134 66.5165 21.9655C65.6949 22.3176 64.7139 22.4937 63.5737 22.4937ZM74.1673 22.2422H71.4509V9.66602H73.941V13.1622L74.1673 13.288V22.2422ZM74.1673 14.0928H73.5385V11.6531H74.0667C74.3183 11.0662 74.7291 10.5631 75.2992 10.1439C75.8861 9.70794 76.6407 9.48995 77.5629 9.48995C78.4516 9.48995 79.1559 9.68279 79.6757 10.0685C80.2123 10.4541 80.598 10.9656 80.8327 11.6027C81.0675 12.2399 81.1848 12.9526 81.1848 13.7407V14.5707H78.4684V14.0677C78.4684 13.2293 78.3259 12.6424 78.0408 12.307C77.7557 11.9716 77.2192 11.804 76.4311 11.804C75.6094 11.804 75.0225 11.98 74.6704 12.3322C74.335 12.6675 74.1673 13.2544 74.1673 14.0928Z" fill="#121312"/>
<path d="M90.6897 17.2369H84.2758V13.8665H90.8406C91.7125 13.8665 92.3162 13.6988 92.6516 13.3634C92.9869 13.0113 93.1546 12.3322 93.1546 11.3261C93.1546 10.3032 92.9869 9.6241 92.6516 9.28873C92.3162 8.95337 91.7125 8.78568 90.8406 8.78568H84.2758V5.39012H90.6897C91.897 5.39012 92.9702 5.62487 93.9092 6.09438C94.8482 6.5639 95.5776 7.24301 96.0974 8.13172C96.634 9.00367 96.9023 10.0685 96.9023 11.3261C96.9023 12.5837 96.634 13.6569 96.0974 14.5456C95.5776 15.4175 94.8482 16.0882 93.9092 16.5578C92.9702 17.0105 91.897 17.2369 90.6897 17.2369ZM86.7156 22.2422H82.9428V5.39012H86.7156V22.2422ZM102.19 22.2422H98.4173V5.39012H106.164C107.506 5.39012 108.638 5.59134 109.56 5.99378C110.499 6.39621 111.211 6.9831 111.698 7.75444C112.184 8.50901 112.427 9.43126 112.427 10.5212C112.427 11.4267 112.276 12.2148 111.974 12.8855C111.673 13.5395 111.203 14.0593 110.566 14.445C109.945 14.8139 109.149 15.0486 108.176 15.1492V15.4008C108.897 15.6187 109.468 15.9457 109.887 16.3817C110.306 16.8177 110.675 17.3626 110.994 18.0166L113.131 22.2422H108.73L106.743 18.3436C106.491 17.8573 106.24 17.4632 105.988 17.1614C105.753 16.8428 105.46 16.6164 105.108 16.4823C104.772 16.3314 104.303 16.2559 103.699 16.2559H102.19V22.2422ZM102.19 8.78568V13.137H106.34C107.229 13.137 107.841 12.9777 108.176 12.6591C108.512 12.3405 108.679 11.7704 108.679 10.9488C108.679 10.1439 108.512 9.58218 108.176 9.26358C107.841 8.94498 107.229 8.78568 106.34 8.78568H102.19ZM121.958 22.4937C120.264 22.4937 118.814 22.1416 117.606 21.4373C116.416 20.7163 115.493 19.7102 114.839 18.419C114.185 17.1111 113.859 15.5768 113.859 13.8162C113.859 12.0555 114.185 10.5296 114.839 9.23843C115.493 7.93051 116.416 6.92441 117.606 6.22015C118.814 5.49911 120.264 5.1386 121.958 5.1386C123.634 5.1386 125.076 5.49911 126.284 6.22015C127.491 6.92441 128.413 7.93051 129.051 9.23843C129.704 10.5296 130.031 12.0555 130.031 13.8162C130.031 15.5768 129.704 17.1111 129.051 18.419C128.413 19.7102 127.491 20.7163 126.284 21.4373C125.076 22.1416 123.634 22.4937 121.958 22.4937ZM121.958 18.8466C122.913 18.8466 123.685 18.7041 124.272 18.419C124.875 18.1172 125.311 17.6058 125.58 16.8847C125.865 16.1469 126.007 15.1241 126.007 13.8162C126.007 12.4915 125.865 11.4686 125.58 10.7476C125.311 10.0265 124.875 9.52349 124.272 9.23843C123.685 8.9366 122.913 8.78568 121.958 8.78568C120.985 8.78568 120.197 8.9366 119.593 9.23843C119.006 9.52349 118.57 10.0265 118.285 10.7476C118.017 11.4686 117.883 12.4915 117.883 13.8162C117.883 15.1241 118.017 16.1469 118.285 16.8847C118.57 17.6058 119.006 18.1172 119.593 18.419C120.197 18.7041 120.985 18.8466 121.958 18.8466Z" fill="#019447"/>
<g clip-path="url(#clip0_4178_10821)">
<path d="M41.2891 0H58.1803V30.0216H41.2891V0ZM51.0123 12.7645C51.0063 12.6927 51.0487 12.6035 51.0753 12.5335C51.1639 12.5572 51.641 13.0249 51.7505 13.0583C51.9086 13.0284 52.216 12.7309 52.351 12.6201C53.5554 11.6318 54.7144 10.5646 55.6965 9.35096C56.2953 8.61106 56.8731 7.77174 57.193 6.86697C57.2484 6.71005 57.285 6.54403 57.3265 6.38288C57.4306 5.9781 57.4901 5.57341 57.4448 5.15469C57.3557 4.33104 56.9838 3.60642 56.3342 3.08561C55.4437 2.37164 54.189 2.26689 53.0963 2.38916C50.4705 2.683 47.1409 4.71509 45.5029 6.77476C44.956 7.46252 44.4151 8.36769 44.2499 9.24079C44.1727 9.64911 44.1706 10.1358 44.2193 10.5483C44.3055 11.2793 44.7974 12.0639 45.3671 12.513C45.9624 12.9822 46.8405 13.306 47.6025 13.2171C47.6568 13.178 47.6742 13.1674 47.7143 13.1143C47.6993 13.0698 47.6343 13.0636 47.594 13.0377C47.147 12.7499 46.8398 11.9004 46.7312 11.4034C46.4379 10.0606 47.0489 8.60781 47.762 7.49292C48.8845 5.73795 50.8025 4.16122 52.8638 3.7122C53.3448 3.60742 53.9538 3.59886 54.382 3.88055C54.6095 4.03025 54.7478 4.32124 54.8025 4.58202C54.8775 4.93901 54.8001 5.30689 54.7112 5.65377C54.2293 7.53362 52.7581 9.29973 51.5093 10.7487C51.3038 10.9869 51.0926 11.2202 50.8759 11.4483C50.7007 11.6358 50.5057 11.8261 50.3668 12.0396C50.5104 12.1085 50.8029 12.3078 50.9159 12.4217C50.8453 12.4906 50.8268 12.5072 50.7409 12.5548L50.7335 12.5517C50.6071 12.4978 50.4167 12.3342 50.2908 12.2455C49.4982 11.6873 48.6395 11.0762 48.022 10.3222C47.9454 10.2286 47.72 9.90611 47.5992 9.85611C47.5802 9.85857 47.5641 9.86067 47.5508 9.8624C47.4485 9.92995 47.3625 10.2547 47.3454 10.3732C47.0939 12.1097 48.4591 13.4849 49.5257 14.6367C51.0522 16.2852 53.1056 18.2716 52.6573 20.7282C52.4024 22.0825 51.4484 23.2477 50.3309 24.0077C49.5339 24.5499 48.2155 25.0363 47.2404 24.8344C46.6825 24.7223 46.1942 24.3881 45.8878 23.9086C44.4927 21.7678 47.3292 17.6411 48.7019 16.0338C48.8591 15.8497 49.0181 15.6672 49.1791 15.4864C49.25 15.4073 49.5533 15.1064 49.5319 15.0117C49.4187 14.8757 49.1888 14.651 49.0544 14.5191C48.851 14.3194 48.5897 14.0052 48.388 13.8256C48.2279 13.9851 47.9008 14.2178 47.7091 14.374C47.3266 14.688 46.9515 15.0109 46.5841 15.3424C44.4233 17.2685 42.033 19.8969 41.9736 22.9644C41.9525 24.0498 42.3814 25.3441 43.1772 26.0975C46.4045 29.1534 51.7309 27.076 54.5283 24.4357C55.6767 23.3517 56.5786 21.7849 56.5731 20.1775C56.5002 17.2294 53.9814 15.025 51.8181 13.3702C51.5581 13.1712 51.2503 12.9754 51.0123 12.7645Z" fill="white" fill-opacity="0.01"/>
<path d="M48.3898 13.825C48.5914 14.0045 48.8528 14.3187 49.0562 14.5184C49.1906 14.6504 49.4205 14.875 49.5337 15.0111C49.5551 15.1058 49.2518 15.4067 49.1809 15.4858C49.0199 15.6666 48.8609 15.849 48.7037 16.0331C47.331 17.6405 44.4945 21.7671 45.8895 23.9079C46.1959 24.3874 46.6842 24.7216 47.2422 24.8338C48.2172 25.0357 49.5356 24.5492 50.3327 24.007C51.4502 23.2471 52.4042 22.0819 52.6591 20.7276C53.1074 18.2709 51.054 16.2845 49.5275 14.6361C48.4609 13.4842 47.0956 12.1091 47.3471 10.3725C47.3643 10.254 47.4503 9.9293 47.5526 9.86175C47.5659 9.86002 47.582 9.85793 47.601 9.85547C47.7217 9.90547 47.9472 10.228 48.0238 10.3215C48.6413 11.0756 49.5 11.6866 50.2926 12.2449C50.4184 12.3335 50.6089 12.4972 50.7353 12.5511L50.7427 12.5542C50.8286 12.5066 50.8471 12.4899 50.9176 12.421C50.9738 12.4473 51.0395 12.4814 51.0771 12.5329C51.0505 12.6028 51.008 12.6921 51.014 12.7638C51.2521 12.9747 51.5598 13.1706 51.8199 13.3695C53.9831 15.0244 56.502 17.2288 56.5749 20.1768C56.5803 21.7843 55.6785 23.351 54.53 24.4351C51.7327 27.0753 46.4062 29.1528 43.1789 26.0968C42.3832 25.3435 41.9543 24.0491 41.9753 22.9637C42.0348 19.8962 44.4251 17.2679 46.5858 15.3417C46.9533 15.0102 47.3284 14.6873 47.7109 14.3733C47.9026 14.2172 48.2297 13.9845 48.3898 13.825ZM49.6909 24.893C49.5645 24.9489 49.2751 25.1094 49.1659 25.1259C49.2648 25.1256 49.5728 25.0319 49.6318 24.9623C49.6414 24.943 49.6745 24.9107 49.6909 24.893ZM47.8118 25.2689C47.8592 25.2734 48.05 25.2595 48.0821 25.234C48.0418 25.2246 47.7798 25.2257 47.7036 25.2209C47.7342 25.2335 47.7853 25.2524 47.8118 25.2689Z" fill="#121312"/>
<path d="M50.9171 12.4219C50.9733 12.4481 51.039 12.4822 51.0765 12.5337C51.0499 12.6037 51.0075 12.6929 51.0135 12.7647C50.9348 12.7438 50.7975 12.6159 50.7422 12.555C50.828 12.5074 50.8466 12.4908 50.9171 12.4219Z" fill="white"/>
<path d="M46.3805 16.0586L46.3877 16.0895C46.3433 16.1399 46.3109 16.1604 46.2978 16.2195C46.3728 16.238 46.4197 16.1921 46.4729 16.1449L46.4946 16.154C46.3839 16.2783 46.2723 16.4017 46.1597 16.5241C45.8988 16.8422 45.6338 17.1463 45.3724 17.4682C44.7906 18.1844 44.3117 18.8957 43.8037 19.6596C43.7355 19.4628 43.8946 19.0999 43.969 18.901C44.0073 18.8074 44.1565 18.6024 44.2163 18.514C44.5835 17.971 44.9932 17.471 45.4464 16.9976C45.5876 16.8501 45.7539 16.6561 45.9066 16.5238C45.9741 16.4334 46.2869 16.1447 46.3805 16.0586Z" fill="white"/>
<path d="M46.382 16.0586L46.3893 16.0895C46.3449 16.1399 46.3124 16.1604 46.2993 16.2195C46.3743 16.238 46.4213 16.1921 46.4744 16.1449L46.4962 16.154C46.3855 16.2783 46.2738 16.4017 46.1612 16.5241C46.1424 16.4095 46.2343 16.438 46.2474 16.3511L46.1779 16.3039C46.0905 16.3947 46.0245 16.4699 45.9082 16.5238C45.9757 16.4334 46.2884 16.1447 46.382 16.0586Z" fill="white"/>
<path d="M51.0248 13.2305C52.0159 13.9579 53.0132 14.7784 53.8612 15.669C53.9235 15.7344 54.1764 16.012 54.2125 16.0737L54.202 16.1015C54.3146 16.2313 54.8301 16.8196 54.8161 16.9504C54.812 16.9878 54.7982 17.0119 54.7742 17.0401C54.6532 17.0794 54.6421 16.9161 54.5855 16.8395C54.4433 16.648 54.2945 16.4452 54.1364 16.2668L54.1148 16.2748C54.0765 16.2409 53.9054 16.0331 53.8637 15.9841C53.695 15.7853 53.5379 15.6094 53.3555 15.423C52.6292 14.6746 51.8526 13.9766 51.0312 13.3341L51.002 13.2682L51.0248 13.2305Z" fill="white"/>
<path d="M54.1133 16.2753L54.1349 16.2673C54.293 16.4457 54.4419 16.6485 54.584 16.84C54.6407 16.9165 54.6517 17.0798 54.7727 17.0406C54.7967 17.0124 54.8105 16.9883 54.8146 16.9508C54.8286 16.82 54.3131 16.2318 54.2005 16.102L54.211 16.0742C55.2173 17.1674 55.9991 18.6822 55.9151 20.1914C55.9045 20.3829 55.8691 20.7575 55.8155 20.9406C55.7677 20.8741 55.7809 20.8375 55.7837 20.7578C55.8092 20.3329 55.8146 19.9575 55.7531 19.5337C55.7188 19.2976 55.6561 19.1441 55.5931 18.9255C55.385 18.204 55.0169 17.5524 54.6032 16.9304C54.4572 16.7107 54.2684 16.4954 54.1133 16.2753Z" fill="white"/>
<path d="M45.2169 22.6936L45.2561 22.6406C45.2825 22.7122 45.247 22.7729 45.2788 22.8409C45.3321 23.828 45.9682 24.7045 46.8845 25.0737C46.6006 25.1779 46.6866 25.0513 46.4868 25.0649C46.3398 25.0397 45.9794 24.771 45.8697 24.6534C45.3669 24.1143 45.2112 23.403 45.2169 22.6936Z" fill="white"/>
<path d="M42.9453 21.0667C43.0799 20.5021 43.6175 19.3566 43.9701 18.9023C43.8956 19.1013 43.7366 19.4642 43.8048 19.661C43.5853 20.0404 43.3748 20.4193 43.2148 20.8277C43.188 20.896 43.1535 20.9682 43.1207 21.034L43.1059 21.0329C43.0967 20.9469 43.1816 20.9011 43.1614 20.8297C43.1225 20.7949 43.1168 20.7886 43.0662 20.7779C43.0341 20.8122 43.0053 21.0012 42.9657 21.0812L42.9453 21.0667Z" fill="white"/>
<path d="M52.1017 22.9219L52.1539 22.9588C52.105 23.089 51.9805 23.1881 51.9485 23.3062C51.6072 23.7478 51.0447 24.2034 50.5662 24.4955C50.5671 24.4657 50.5818 24.464 50.5746 24.4173C50.5056 24.4266 50.5412 24.4645 50.4297 24.4691C50.5737 24.3581 50.7265 24.2557 50.8725 24.1415C51.355 23.7641 51.7225 23.4012 52.1017 22.9219Z" fill="white"/>
<path d="M42.9444 21.0662L42.9648 21.0807C43.0044 21.0007 43.0332 20.8117 43.0653 20.7773C43.1158 20.7881 43.1215 20.7943 43.1605 20.8291C43.1807 20.9006 43.0958 20.9464 43.1049 21.0324L43.1198 21.0335C43.0229 21.3194 42.7886 21.9693 42.7812 22.2497L42.7383 22.2715C42.792 21.872 42.7722 21.4664 42.9444 21.0662Z" fill="white"/>
<path d="M46.963 15.5039L47.0484 15.5373L47.064 15.5755C46.9581 15.6855 46.5967 16.0771 46.4977 16.1535L46.4759 16.1444C46.4227 16.1916 46.3758 16.2375 46.3008 16.219C46.3139 16.1598 46.3463 16.1394 46.3907 16.089L46.3835 16.0581C46.417 16.0091 46.8749 15.5903 46.963 15.5039Z" fill="white"/>
<path d="M52.6332 22.1094L52.704 22.1387C52.5641 22.431 52.1833 23.0714 51.9492 23.3056C51.9813 23.1875 52.1058 23.0884 52.1547 22.9582L52.1024 22.9213C52.2993 22.6643 52.4768 22.3929 52.6332 22.1094Z" fill="white"/>
<path d="M51.0309 13.3354C50.5 12.9004 49.9439 12.5007 49.4215 12.0604C49.3694 12.0164 49.2129 11.8919 49.1816 11.8527L49.1978 11.8516C49.3292 11.9758 49.4264 12.0313 49.5671 12.1403C49.9041 12.4012 50.2455 12.6562 50.5912 12.9052C50.6627 12.9577 50.9843 13.1878 51.0245 13.2318L51.0017 13.2696L51.0309 13.3354Z" fill="white"/>
<path d="M46.4844 25.0675C46.6842 25.0538 46.5982 25.1804 46.8821 25.0762C47.0944 25.1605 47.4758 25.2311 47.7018 25.2227C47.7325 25.2352 47.7836 25.2542 47.81 25.2707C47.4565 25.288 46.7947 25.2509 46.4844 25.0675Z" fill="white"/>
<path d="M50.4291 24.4678C50.5406 24.4632 50.5051 24.4253 50.574 24.416C50.5813 24.4627 50.5665 24.4643 50.5657 24.4942C50.3415 24.6597 49.8959 24.8675 49.6289 24.963C49.6386 24.9437 49.6716 24.9114 49.6881 24.8937C49.9412 24.7787 50.1911 24.6143 50.4291 24.4678Z" fill="white"/>
<path d="M46.9609 15.5043C47.1018 15.371 47.5093 15.0054 47.6673 14.9238C47.5951 15.0297 47.1653 15.5001 47.062 15.5759L47.0463 15.5378L46.9609 15.5043Z" fill="white"/>
<path d="M55.8165 20.9406C55.8438 21.0767 55.5565 21.8858 55.4697 22.0258L55.4648 22.0082C55.5028 21.946 55.492 21.893 55.5196 21.8305C55.6823 21.4605 55.7325 21.1542 55.7846 20.7578C55.7819 20.8375 55.7687 20.8741 55.8165 20.9406Z" fill="white"/>
<path d="M45.2168 22.6941C45.216 22.4735 45.2364 22.2532 45.2777 22.0364C45.298 21.9264 45.3268 21.872 45.3356 21.7578C45.3515 21.8335 45.2944 22.238 45.2885 22.3594C45.2808 22.5191 45.2799 22.6786 45.2787 22.8414C45.2469 22.7734 45.2824 22.7127 45.256 22.6411L45.2168 22.6941Z" fill="white"/>
<path d="M52.6328 22.1084C52.7788 21.8577 52.8569 21.6573 52.9517 21.3856C52.9633 21.3525 52.9878 21.2566 53.008 21.248C53.018 21.3452 52.7695 22.0251 52.7036 22.1378L52.6328 22.1084Z" fill="white"/>
<path d="M49.6299 24.9638C49.571 25.0334 49.2629 25.1271 49.1641 25.1274C49.2733 25.111 49.5626 24.9505 49.6891 24.8945C49.6727 24.9122 49.6396 24.9445 49.6299 24.9638Z" fill="#121312"/>
<path d="M47.7031 25.2227C47.7793 25.2274 48.0413 25.2263 48.0817 25.2357C48.0496 25.2613 47.8587 25.2751 47.8113 25.2707C47.7848 25.2542 47.7337 25.2352 47.7031 25.2227Z" fill="white" fill-opacity="0.988235"/>
<path d="M42.7835 22.25C42.7694 22.3694 42.7532 22.4885 42.7346 22.6073C42.7288 22.5167 42.7125 22.3547 42.7406 22.2718L42.7835 22.25Z" fill="#121312"/>
<path d="M47.6015 13.2174C46.8395 13.3062 45.9614 12.9824 45.3661 12.5132C44.7964 12.0642 44.3045 11.2796 44.2182 10.5486C44.1696 10.1361 44.1717 9.64936 44.2489 9.24103C44.4141 8.36793 44.9549 7.46277 45.5019 6.77501C47.1399 4.71533 50.4695 2.68325 53.0953 2.3894C54.188 2.26714 55.4427 2.37188 56.3332 3.08585C56.9828 3.60666 57.3547 4.33129 57.4438 5.15493C57.489 5.57365 57.4296 5.97835 57.3254 6.38313C57.284 6.54427 57.2474 6.7103 57.1919 6.86722C56.8721 7.77199 56.2943 8.61131 55.6955 9.35121C54.7134 10.5648 53.5544 11.6321 52.35 12.6204C52.215 12.7312 51.9075 13.0286 51.7495 13.0586C51.64 13.0251 51.1629 12.5575 51.0743 12.5338C51.0367 12.4822 50.971 12.4482 50.9148 12.4219C50.8019 12.308 50.5093 12.1087 50.3658 12.0398C50.5047 11.8264 50.6996 11.6361 50.8748 11.4485C51.0915 11.2204 51.3027 10.9872 51.5083 10.749C52.7571 9.29997 54.2283 7.53386 54.7101 5.65402C54.7991 5.30714 54.8764 4.93926 54.8015 4.58226C54.7468 4.32149 54.6085 4.03049 54.3809 3.8808C53.9528 3.59911 53.3438 3.60767 52.8628 3.71245C50.8014 4.16147 48.8835 5.73819 47.761 7.49317C47.0479 8.60806 46.4369 10.0608 46.7302 11.4036C46.8388 11.9007 47.146 12.7502 47.593 13.038C47.6333 13.0639 47.6982 13.07 47.7132 13.1145C47.6732 13.1676 47.6558 13.1783 47.6015 13.2174ZM51.2235 3.25373C51.4446 3.17707 51.665 3.0834 51.9 3.00319L51.9024 2.97616C51.9234 2.97279 51.9224 2.97413 51.9423 2.98216L51.9166 2.97751L51.9235 2.99637L51.9072 2.97886C51.6935 3.01624 51.4337 3.10494 51.232 3.18491L51.2235 3.25373ZM54.0372 8.10496C54.1039 8.00825 54.1801 7.84322 54.234 7.73313C54.1531 7.81156 54.0726 7.95632 54.0158 8.05479L54.0372 8.10496Z" fill="#121312"/>
<path d="M48.9233 4.3125C48.9147 4.39653 48.9382 4.46843 48.9094 4.51607C48.8474 4.56508 48.812 4.59119 48.7445 4.63173C47.9211 5.24955 47.3193 5.74359 46.5997 6.49413C46.4473 6.65093 46.3023 6.81473 46.1652 6.98498C46.1285 7.03087 45.8903 7.33844 45.866 7.3598C45.8533 7.34702 45.8566 7.34057 45.8532 7.3183L45.8949 7.27637C45.8851 7.12933 45.8021 7.19792 45.8822 7.00834C45.897 6.97563 45.9308 6.93752 45.9522 6.90765C46.5715 6.04281 47.3842 5.33925 48.2594 4.74344C48.351 4.68114 48.4451 4.61478 48.5433 4.56165C48.6072 4.50225 48.8437 4.3595 48.9233 4.3125Z" fill="white"/>
<path d="M48.9249 4.3125C48.9163 4.39653 48.9399 4.46843 48.911 4.51607C48.849 4.56508 48.8136 4.59119 48.7461 4.63173L48.7728 4.57078C48.7664 4.52217 48.7756 4.53713 48.7431 4.50972C48.6648 4.50888 48.6456 4.54005 48.5582 4.55884L48.5449 4.56165C48.6088 4.50225 48.8453 4.3595 48.9249 4.3125Z" fill="white"/>
<path d="M52.9058 9.63086L53.0124 9.68727C52.4608 10.4647 52.0738 10.9189 51.3543 11.5586C51.3348 11.5378 51.3367 11.5349 51.332 11.5072C51.3678 11.4629 51.377 11.4521 51.3947 11.3976L51.3985 11.3859C51.4398 11.3188 51.7185 11.0075 51.7872 10.9248C52.1503 10.4879 52.5468 10.0713 52.9058 9.63086Z" fill="white"/>
<path d="M48.926 4.31029C49.0032 4.24722 49.3212 4.07312 49.4235 4.01486C50.0173 3.6769 50.5888 3.41159 51.234 3.18359L51.2255 3.25241C50.3003 3.66442 49.7579 3.96882 48.9121 4.51386C48.9409 4.46622 48.9174 4.39432 48.926 4.31029Z" fill="white"/>
<path d="M56.7028 6.80925C56.7831 6.58055 56.8677 6.35332 56.9195 6.11628C57.0701 5.42348 56.986 4.70026 56.6804 4.06048C56.5114 3.70915 56.3242 3.56836 56.0645 3.3125C56.3755 3.49715 56.7474 3.96446 56.874 4.28912C57.1674 5.04136 57.0973 5.97253 56.7847 6.70815C56.7688 6.74553 56.7455 6.79347 56.7342 6.83164L56.7028 6.80925Z" fill="white"/>
<path d="M44.8359 9.462C44.843 9.00097 45.185 8.03063 45.4542 7.65234C45.4366 7.70628 45.4183 7.74173 45.4384 7.79406C45.4785 7.83755 45.4857 7.84089 45.539 7.86446C45.1937 8.44071 45.0352 8.82794 44.8359 9.462Z" fill="white"/>
<path d="M45.4543 7.65207C45.5152 7.52634 45.7944 7.11431 45.8865 7.00781C45.8063 7.19739 45.8894 7.12881 45.8992 7.27585L45.8574 7.31778C45.8608 7.34005 45.8575 7.3465 45.8703 7.35928C45.7616 7.52874 45.6512 7.69704 45.539 7.86419C45.4858 7.84061 45.4786 7.83728 45.4384 7.79378C45.4184 7.74146 45.4367 7.70601 45.4543 7.65207Z" fill="white"/>
<path d="M54.0171 8.05469L54.0385 8.10487C53.9711 8.23658 53.4728 9.08992 53.3784 9.1755L53.2793 9.15244C53.4615 8.88747 53.8743 8.32544 54.0171 8.05469Z" fill="white"/>
<path d="M53.1113 9.37109L53.1935 9.43658C53.1305 9.53309 53.0849 9.59728 53.0129 9.68718L52.9062 9.63076L53.1113 9.37109Z" fill="white"/>
<path d="M51.2331 3.18313C51.4348 3.10316 51.6946 3.01446 51.9083 2.97709L51.9246 2.99459L51.9177 2.97573L51.9434 2.98038C51.9235 2.97235 51.9244 2.97102 51.9035 2.97438L51.9011 3.00142C51.6661 3.08162 51.4457 3.17529 51.2246 3.25195L51.2331 3.18313Z" fill="white" fill-opacity="0.980392"/>
<path d="M53.279 9.15234L53.3781 9.1754C53.3199 9.26372 53.2623 9.3568 53.1935 9.43671L53.1113 9.37122L53.279 9.15234Z" fill="white"/>
<path d="M51.4016 11.3867L51.3979 11.3985C51.3802 11.4529 51.3709 11.4637 51.3352 11.5081C51.3399 11.5358 51.3379 11.5387 51.3574 11.5595C51.2855 11.6271 51.0782 11.8048 51.0315 11.8642L50.998 11.8489C51.1287 11.7107 51.2669 11.534 51.4016 11.3867Z" fill="white"/>
<path d="M56.7342 6.83098C56.6617 7.05602 56.5196 7.33702 56.3965 7.54315C56.3953 7.5225 56.6692 6.88652 56.7028 6.80859L56.7342 6.83098Z" fill="white"/>
<path d="M54.0176 8.05408C54.0744 7.95562 54.1548 7.81086 54.2358 7.73242C54.1818 7.84251 54.1056 8.00755 54.039 8.10426L54.0176 8.05408Z" fill="#121312"/>
<path d="M50.7285 12.1275C50.8171 12.0087 50.8815 11.9446 50.9961 11.8477L51.0296 11.8629C50.9627 11.9482 50.8144 12.0602 50.7285 12.1275Z" fill="#121312"/>
</g>
<defs>
<clipPath id="clip0_4178_10821">
<rect width="16.8913" height="30.0216" fill="white" transform="translate(41.2891)"/>
</clipPath>
</defs>
</svg>
