<svg preserveAspectRatio="none" width="100%" height="100%" overflow="visible" style="display: block;" viewBox="0 0 16.8913 30.0216" fill="none" xmlns="http://www.w3.org/2000/svg">
<g id="ChatGPT Image Feb 6, 2026, 01_30_39 AM 1 [Vectorized]" clip-path="url(#clip0_0_15)">
<path id="Vector" d="M0 0H16.8913V30.0216H0V0ZM9.72321 12.7645C9.71719 12.6927 9.75962 12.6035 9.78622 12.5335C9.87482 12.5572 10.352 13.0249 10.4614 13.0583C10.6195 13.0284 10.927 12.7309 11.062 12.6201C12.2664 11.6318 13.4253 10.5646 14.4075 9.35096C15.0062 8.61106 15.584 7.77174 15.9039 6.86697C15.9594 6.71005 15.9959 6.54403 16.0374 6.38288C16.1415 5.9781 16.201 5.57341 16.1557 5.15469C16.0667 4.33104 15.6947 3.60642 15.0451 3.08561C14.1547 2.37164 12.9 2.26689 11.8073 2.38916C9.18144 2.683 5.85183 4.71509 4.21386 6.77476C3.6669 7.46252 3.12607 8.36769 2.96089 9.24079C2.88364 9.64911 2.88153 10.1358 2.9302 10.5483C3.01647 11.2793 3.50833 12.0639 4.07807 12.513C4.67335 12.9822 5.55143 13.306 6.31345 13.2171C6.36772 13.178 6.38516 13.1674 6.42521 13.1143C6.41022 13.0698 6.34522 13.0636 6.30494 13.0377C5.85797 12.7499 5.55077 11.9004 5.44218 11.4034C5.14883 10.0606 5.75985 8.60781 6.47295 7.49292C7.59544 5.73795 9.51339 4.16122 11.5747 3.7122C12.0558 3.60742 12.6648 3.59886 13.0929 3.88055C13.3205 4.03025 13.4587 4.32124 13.5135 4.58202C13.5884 4.93901 13.511 5.30689 13.4221 5.65377C12.9402 7.53362 11.469 9.29973 10.2202 10.7487C10.0147 10.9869 9.80351 11.2202 9.58679 11.4483C9.4116 11.6358 9.21662 11.8261 9.07775 12.0396C9.22129 12.1085 9.51387 12.3078 9.6268 12.4217C9.55625 12.4906 9.53772 12.5072 9.45186 12.5548L9.44442 12.5517C9.31802 12.4978 9.12761 12.3342 9.00175 12.2455C8.20915 11.6873 7.35042 11.0762 6.73298 10.3222C6.65636 10.2286 6.4309 9.90611 6.31014 9.85611C6.29118 9.85857 6.27505 9.86067 6.26176 9.8624C6.15945 9.92995 6.07348 10.2547 6.05631 10.3732C5.8048 12.1097 7.17006 13.4849 8.23666 14.6367C9.76315 16.2852 11.8165 18.2716 11.3682 20.7282C11.1133 22.0825 10.1593 23.2477 9.04184 24.0077C8.2448 24.5499 6.92639 25.0363 5.95131 24.8344C5.39341 24.7223 4.90511 24.3881 4.59871 23.9086C3.20366 21.7678 6.04013 17.6411 7.41284 16.0338C7.57002 15.8497 7.72909 15.6672 7.89001 15.4864C7.96098 15.4073 8.26426 15.1064 8.24287 15.0117C8.12966 14.8757 7.89971 14.651 7.76533 14.5191C7.56197 14.3194 7.3006 14.0052 7.09896 13.8256C6.93883 13.9851 6.61174 14.2178 6.42005 14.374C6.03754 14.688 5.66241 15.0109 5.29501 15.3424C3.13427 17.2685 0.74393 19.8969 0.68451 22.9644C0.663487 24.0498 1.09238 25.3441 1.88811 26.0975C5.11541 29.1534 10.4418 27.076 13.2392 24.4357C14.3877 23.3517 15.2895 21.7849 15.284 20.1775C15.2112 17.2294 12.6923 15.025 10.5291 13.3702C10.269 13.1712 9.96122 12.9754 9.72321 12.7645Z" fill="var(--fill-0, white)" fill-opacity="0.01"/>
<path id="Vector_2" d="M7.10074 13.8259C7.30238 14.0055 7.56375 14.3197 7.7671 14.5194C7.90149 14.6514 8.13143 14.876 8.24464 15.0121C8.26604 15.1068 7.96275 15.4077 7.89179 15.4868C7.73086 15.6676 7.5718 15.85 7.41461 16.0341C6.0419 17.6415 3.20544 21.7681 4.60048 23.9089C4.90689 24.3884 5.39518 24.7226 5.95309 24.8348C6.92816 25.0367 8.24657 24.5502 9.04361 24.008C10.1611 23.2481 11.1151 22.0828 11.37 20.7286C11.8183 18.2719 9.76492 16.2855 8.23844 14.637C7.17183 13.4852 5.80658 12.11 6.05808 10.3735C6.07525 10.255 6.16123 9.93028 6.26353 9.86273C6.27683 9.861 6.29296 9.8589 6.31191 9.85645C6.43267 9.90644 6.65813 10.2289 6.73475 10.3225C7.35219 11.0765 8.21092 11.6876 9.00353 12.2458C9.12939 12.3345 9.31979 12.4982 9.4462 12.5521L9.45364 12.5551C9.53949 12.5075 9.55802 12.4909 9.62857 12.422C9.68474 12.4482 9.75042 12.4823 9.788 12.5339C9.76139 12.6038 9.71896 12.6931 9.72498 12.7648C9.963 12.9757 10.2708 13.1716 10.5308 13.3705C12.6941 15.0254 15.2129 17.2297 15.2858 20.1778C15.2913 21.7853 14.3894 23.352 13.241 24.4361C10.4436 27.0763 5.11719 29.1537 1.88988 26.0978C1.09415 25.3445 0.665261 24.0501 0.686285 22.9647C0.745704 19.8972 3.13604 17.2688 5.29679 15.3427C5.66419 15.0112 6.03931 14.6883 6.42182 14.3743C6.61351 14.2181 6.9406 13.9855 7.10074 13.8259ZM8.40187 24.894C8.27539 24.9499 7.98603 25.1104 7.87683 25.1269C7.9757 25.1266 8.28374 25.0329 8.34269 24.9633C8.35236 24.944 8.38543 24.9116 8.40187 24.894ZM6.52269 25.2699C6.5701 25.2744 6.76097 25.2605 6.79305 25.2349C6.75273 25.2255 6.49072 25.2267 6.41451 25.2219C6.44513 25.2344 6.49623 25.2534 6.52269 25.2699Z" fill="var(--fill-0, #121312)"/>
<path id="Vector_3" d="M9.62806 12.4219C9.68423 12.4481 9.74991 12.4822 9.78749 12.5337C9.76088 12.6037 9.71845 12.6929 9.72447 12.7647C9.64576 12.7438 9.50845 12.6159 9.45312 12.555C9.53898 12.5074 9.55751 12.4908 9.62806 12.4219Z" fill="var(--fill-0, white)"/>
<path id="Vector_4" d="M5.09143 16.0596L5.09865 16.0904C5.05426 16.1409 5.02182 16.1613 5.0087 16.2205C5.08372 16.239 5.13064 16.1931 5.18382 16.1459L5.20557 16.155C5.09487 16.2792 4.98322 16.4027 4.8706 16.5251C4.60975 16.8431 4.34473 17.1473 4.0833 17.4691C3.50157 18.1854 3.02268 18.8967 2.51467 19.6606C2.44644 19.4638 2.60551 19.1009 2.67995 18.9019C2.71819 18.8084 2.86739 18.6034 2.92722 18.515C3.2944 17.9719 3.70417 17.472 4.15734 16.9985C4.29854 16.8511 4.46485 16.6571 4.61758 16.5248C4.68508 16.4344 4.9978 16.1457 5.09143 16.0596Z" fill="var(--fill-0, white)"/>
<path id="Vector_5" d="M5.09299 16.0596L5.10021 16.0904C5.05582 16.1409 5.02338 16.1613 5.01026 16.2205C5.08528 16.239 5.1322 16.1931 5.18538 16.1459L5.20713 16.155C5.09643 16.2792 4.98478 16.4027 4.87216 16.5251C4.85334 16.4105 4.94524 16.439 4.95837 16.3521L4.88881 16.3048C4.80145 16.3957 4.73545 16.4709 4.61914 16.5248C4.68664 16.4344 4.99936 16.1457 5.09299 16.0596Z" fill="var(--fill-0, white)"/>
<path id="Vector_6" d="M9.7357 13.2314C10.7269 13.9589 11.7241 14.7794 12.5721 15.67C12.6345 15.7354 12.8873 16.013 12.9235 16.0747L12.9129 16.1025C13.0256 16.2323 13.5411 16.8205 13.527 16.9513C13.523 16.9888 13.5091 17.0129 13.4851 17.0411C13.3641 17.0803 13.3531 16.917 13.2964 16.8405C13.1543 16.649 13.0054 16.4462 12.8474 16.2678L12.8257 16.2758C12.7875 16.2419 12.6163 16.0341 12.5747 15.9851C12.4059 15.7863 12.2489 15.6104 12.0665 15.424C11.3402 14.6755 10.5636 13.9776 9.74209 13.3351L9.71289 13.2692L9.7357 13.2314Z" fill="var(--fill-0, white)"/>
<path id="Vector_7" d="M12.8242 16.2762L12.8459 16.2683C13.004 16.4467 13.1528 16.6495 13.2949 16.841C13.3516 16.9175 13.3626 17.0808 13.4837 17.0416C13.5076 17.0134 13.5215 16.9893 13.5255 16.9518C13.5396 16.821 13.0241 16.2328 12.9114 16.103L12.922 16.0752C13.9282 17.1684 14.7101 18.6832 14.6261 20.1923C14.6154 20.3839 14.58 20.7585 14.5265 20.9416C14.4786 20.8751 14.4919 20.8385 14.4946 20.7588C14.5202 20.3339 14.5255 19.9584 14.464 19.5347C14.4297 19.2986 14.367 19.145 14.304 18.9265C14.096 18.205 13.7278 17.5534 13.3141 16.9314C13.1681 16.7117 12.9794 16.4964 12.8242 16.2762Z" fill="var(--fill-0, white)"/>
<path id="Vector_8" d="M3.92789 22.6946L3.96708 22.6416C3.99344 22.7132 3.95796 22.7739 3.98976 22.8419C4.04301 23.8289 4.6791 24.7055 5.59539 25.0747C5.31155 25.1789 5.39754 25.0522 5.1977 25.0659C5.05074 25.0407 4.69039 24.772 4.58064 24.6544C4.07786 24.1153 3.92213 23.404 3.92789 22.6946Z" fill="var(--fill-0, white)"/>
<path id="Vector_9" d="M1.65625 21.0657C1.79085 20.5011 2.32849 19.3556 2.68102 18.9014C2.60658 19.1003 2.44752 19.4632 2.51574 19.66C2.29625 20.0394 2.08571 20.4183 1.92572 20.8267C1.89895 20.895 1.86442 20.9672 1.83166 21.0331L1.8168 21.0319C1.80768 20.946 1.89255 20.9001 1.87237 20.8287C1.83343 20.7939 1.82772 20.7876 1.77718 20.7769C1.74504 20.8112 1.71626 21.0002 1.67667 21.0802L1.65625 21.0657Z" fill="var(--fill-0, white)"/>
<path id="Vector_10" d="M10.8126 22.9209L10.8649 22.9578C10.816 23.088 10.6915 23.1871 10.6594 23.3052C10.3181 23.7468 9.75564 24.2024 9.27717 24.4946C9.278 24.4647 9.29278 24.4631 9.28549 24.4164C9.21657 24.4256 9.25212 24.4635 9.14062 24.4682C9.28465 24.3572 9.43746 24.2547 9.58344 24.1406C10.0659 23.7632 10.4334 23.4003 10.8126 22.9209Z" fill="var(--fill-0, white)"/>
<path id="Vector_11" d="M1.65531 21.0662L1.67573 21.0807C1.71532 21.0007 1.7441 20.8117 1.77623 20.7773C1.82678 20.7881 1.83248 20.7943 1.87143 20.8291C1.8916 20.9006 1.80673 20.9464 1.81586 21.0324L1.83072 21.0335C1.73387 21.3194 1.49952 21.9693 1.49214 22.2497L1.44922 22.2715C1.50291 21.872 1.48317 21.4664 1.65531 21.0662Z" fill="var(--fill-0, white)"/>
<path id="Vector_12" d="M5.67393 15.5049L5.75932 15.5383L5.77496 15.5765C5.66904 15.6865 5.30766 16.0781 5.20859 16.1545L5.18683 16.1454C5.13365 16.1926 5.08674 16.2385 5.01172 16.22C5.02483 16.1608 5.05728 16.1404 5.10167 16.0899L5.09444 16.0591C5.12793 16.0101 5.58582 15.5913 5.67393 15.5049Z" fill="var(--fill-0, white)"/>
<path id="Vector_13" d="M11.3441 22.1084L11.415 22.1378C11.275 22.4301 10.8943 23.0704 10.6602 23.3046C10.6922 23.1865 10.8167 23.0874 10.8656 22.9572L10.8134 22.9203C11.0103 22.6633 11.1877 22.392 11.3441 22.1084Z" fill="var(--fill-0, white)"/>
<path id="Vector_14" d="M9.74203 13.3353C9.2112 12.9003 8.65501 12.5006 8.1327 12.0603C8.08059 12.0164 7.92402 11.8918 7.8928 11.8527L7.90898 11.8515C8.04033 11.9757 8.13752 12.0312 8.27829 12.1402C8.61521 12.4011 8.95661 12.6561 9.30237 12.9051C9.37382 12.9576 9.69546 13.1877 9.73564 13.2317L9.71283 13.2695L9.74203 13.3353Z" fill="var(--fill-0, white)"/>
<path id="Vector_15" d="M5.19531 25.0665C5.39515 25.0528 5.30916 25.1795 5.593 25.0752C5.80529 25.1595 6.18673 25.2301 6.41279 25.2217C6.4434 25.2342 6.4945 25.2532 6.52096 25.2697C6.16748 25.287 5.50561 25.2499 5.19531 25.0665Z" fill="var(--fill-0, white)"/>
<path id="Vector_16" d="M9.14008 24.4678C9.25158 24.4632 9.21603 24.4253 9.28495 24.416C9.29224 24.4627 9.27746 24.4643 9.27663 24.4942C9.05241 24.6597 8.60685 24.8675 8.33984 24.963C8.34951 24.9437 8.38258 24.9114 8.39903 24.8937C8.65212 24.7787 8.90199 24.6143 9.14008 24.4678Z" fill="var(--fill-0, white)"/>
<path id="Vector_17" d="M5.67179 15.5053C5.81266 15.3719 6.22013 15.0064 6.37811 14.9248C6.30592 15.0306 5.87619 15.501 5.77283 15.5769L5.75719 15.5387L5.67179 15.5053Z" fill="var(--fill-0, white)"/>
<path id="Vector_18" d="M14.5272 20.9413C14.5545 21.0774 14.2672 21.8865 14.1804 22.0266L14.1756 22.0089C14.2135 21.9467 14.2027 21.8938 14.2303 21.8313C14.393 21.4613 14.4432 21.155 14.4954 20.7586C14.4926 20.8382 14.4794 20.8749 14.5272 20.9413Z" fill="var(--fill-0, white)"/>
<path id="Vector_19" d="M3.92776 22.6951C3.92692 22.4745 3.94731 22.2541 3.98861 22.0374C4.00892 21.9274 4.03773 21.8729 4.04653 21.7588C4.06243 21.8345 4.00537 22.239 3.99946 22.3604C3.9917 22.5201 3.99082 22.6796 3.98963 22.8424C3.95783 22.7744 3.99331 22.7137 3.96695 22.6421L3.92776 22.6951Z" fill="var(--fill-0, white)"/>
<path id="Vector_20" d="M11.3438 22.1084C11.4898 21.8577 11.5678 21.6573 11.6627 21.3856C11.6742 21.3525 11.6988 21.2566 11.7189 21.248C11.7289 21.3452 11.4804 22.0251 11.4146 22.1378L11.3438 22.1084Z" fill="var(--fill-0, white)"/>
<path id="Vector_21" d="M8.34089 24.9629C8.28193 25.0325 7.9739 25.1262 7.87503 25.1265C7.98423 25.11 8.27359 24.9495 8.40007 24.8936C8.38363 24.9113 8.35056 24.9436 8.34089 24.9629Z" fill="var(--fill-0, #121312)"/>
<path id="Vector_22" d="M6.41406 25.2217C6.49027 25.2265 6.75228 25.2253 6.7926 25.2347C6.76051 25.2603 6.56965 25.2741 6.52224 25.2697C6.49578 25.2532 6.44468 25.2342 6.41406 25.2217Z" fill="var(--fill-0, white)" fill-opacity="0.988235"/>
<path id="Vector_23" d="M1.49441 22.25C1.48037 22.3694 1.46409 22.4885 1.44559 22.6073C1.43975 22.5167 1.42342 22.3547 1.45149 22.2718L1.49441 22.25Z" fill="var(--fill-0, #121312)"/>
<path id="Vector_24" d="M6.31237 13.2171C5.55035 13.306 4.67227 12.9822 4.07698 12.513C3.50725 12.0639 3.01539 11.2793 2.92912 10.5483C2.88044 10.1358 2.88255 9.64912 2.9598 9.2408C3.12498 8.3677 3.66582 7.46253 4.21277 6.77477C5.85075 4.71509 9.18035 2.68301 11.8062 2.38916C12.8989 2.2669 14.1536 2.37165 15.0441 3.08562C15.6936 3.60642 16.0656 4.33105 16.1546 5.1547C16.1999 5.57341 16.1404 5.97811 16.0363 6.38289C15.9948 6.54403 15.9583 6.71006 15.9028 6.86698C15.583 7.77175 15.0051 8.61107 14.4064 9.35097C13.4243 10.5646 12.2653 11.6318 11.0609 12.6201C10.9259 12.7309 10.6184 13.0284 10.4604 13.0583C10.3509 13.0249 9.87374 12.5572 9.78514 12.5336C9.74756 12.482 9.68188 12.4479 9.62571 12.4217C9.51278 12.3078 9.2202 12.1085 9.07666 12.0396C9.21554 11.8261 9.41051 11.6359 9.58571 11.4483C9.80243 11.2202 10.0136 10.9869 10.2192 10.7487C11.468 9.29973 12.9392 7.53362 13.421 5.65378C13.5099 5.3069 13.5873 4.93902 13.5124 4.58203C13.4576 4.32125 13.3194 4.03026 13.0918 3.88056C12.6637 3.59887 12.0547 3.60743 11.5736 3.71221C9.5123 4.16123 7.59436 5.73795 6.47186 7.49293C5.75877 8.60782 5.14775 10.0606 5.4411 11.4034C5.54969 11.9004 5.85688 12.75 6.30386 13.0377C6.34414 13.0636 6.40913 13.0698 6.42412 13.1143C6.38407 13.1674 6.36664 13.178 6.31237 13.2171ZM9.93441 3.25349C10.1555 3.17683 10.3759 3.08316 10.6109 3.00296L10.6133 2.97592C10.6342 2.97256 10.6333 2.97389 10.6532 2.98193L10.6275 2.97727L10.6344 2.99613L10.6181 2.97863C10.4044 3.016 10.1446 3.1047 9.94287 3.18467L9.93441 3.25349ZM12.7481 8.10473C12.8148 8.00801 12.8909 7.84298 12.9449 7.73289C12.8639 7.81132 12.7835 7.95609 12.7267 8.05455L12.7481 8.10473Z" fill="var(--fill-0, #121312)"/>
<path id="Vector_25" d="M7.6342 4.31152C7.62562 4.39555 7.64916 4.46745 7.62033 4.51509C7.5583 4.5641 7.52294 4.59021 7.45545 4.63076C6.63207 5.24858 6.03025 5.74261 5.31061 6.49315C5.15826 6.64996 5.01327 6.81375 4.87609 6.984C4.83947 7.02989 4.60124 7.33747 4.57698 7.35883C4.56421 7.34604 4.56749 7.33959 4.5641 7.31733L4.60585 7.27539C4.59605 7.12835 4.51299 7.19694 4.59316 7.00736C4.60789 6.97465 4.64176 6.93655 4.66313 6.90667C5.28245 6.04184 6.09511 5.33828 6.97038 4.74246C7.06191 4.68016 7.15605 4.6138 7.25423 4.56067C7.31813 4.50127 7.55462 4.35852 7.6342 4.31152Z" fill="var(--fill-0, white)"/>
<path id="Vector_26" d="M7.63583 4.31152C7.62725 4.39555 7.65079 4.46745 7.62196 4.51509C7.55994 4.5641 7.52457 4.59021 7.45709 4.63076L7.48374 4.56981C7.47731 4.5212 7.48653 4.53616 7.45402 4.50874C7.3757 4.5079 7.35655 4.53908 7.26915 4.55787L7.25586 4.56067C7.31976 4.50127 7.55626 4.35852 7.63583 4.31152Z" fill="var(--fill-0, white)"/>
<path id="Vector_27" d="M11.6167 9.63086L11.7234 9.68727C11.1717 10.4647 10.7848 10.9189 10.0652 11.5586C10.0457 11.5378 10.0477 11.5349 10.043 11.5072C10.0787 11.4629 10.088 11.4521 10.1057 11.3976L10.1094 11.3859C10.1507 11.3188 10.4294 11.0075 10.4981 10.9248C10.8612 10.4879 11.2578 10.0713 11.6167 9.63086Z" fill="var(--fill-0, white)"/>
<path id="Vector_28" d="M7.63692 4.31127C7.71418 4.24819 8.0321 4.0741 8.13445 4.01584C8.7282 3.67788 9.29974 3.41257 9.94492 3.18457L9.93646 3.25339C9.0112 3.66539 8.4688 3.9698 7.62305 4.51484C7.65188 4.4672 7.62834 4.3953 7.63692 4.31127Z" fill="var(--fill-0, white)"/>
<path id="Vector_29" d="M15.4137 6.80828C15.494 6.57957 15.5786 6.35235 15.6305 6.11531C15.781 5.4225 15.6969 4.69928 15.3914 4.05951C15.2224 3.70817 15.0351 3.56738 14.7754 3.31152C15.0865 3.49617 15.4583 3.96349 15.5849 4.28815C15.8783 5.04039 15.8082 5.97155 15.4956 6.70718C15.4797 6.74456 15.4564 6.79249 15.4452 6.83066L15.4137 6.80828Z" fill="var(--fill-0, white)"/>
<path id="Vector_30" d="M3.54674 9.4611C3.55378 9.00007 3.89583 8.02973 4.16505 7.65144C4.14742 7.70538 4.12914 7.74083 4.14917 7.79315C4.18933 7.83665 4.19649 7.83998 4.24977 7.86355C3.90446 8.4398 3.74604 8.82703 3.54674 9.4611Z" fill="var(--fill-0, white)"/>
<path id="Vector_31" d="M4.16525 7.6511C4.22615 7.52537 4.50537 7.11333 4.59741 7.00684C4.51725 7.19642 4.6003 7.12783 4.6101 7.27487L4.56835 7.3168C4.57175 7.33907 4.56846 7.34552 4.58123 7.3583C4.47256 7.52776 4.36214 7.69606 4.24997 7.86321C4.19669 7.83964 4.18953 7.83631 4.14937 7.79281C4.12934 7.74048 4.14762 7.70504 4.16525 7.6511Z" fill="var(--fill-0, white)"/>
<path id="Vector_32" d="M12.7279 8.05455L12.7493 8.10473C12.6819 8.23644 12.1836 9.08978 12.0892 9.17536L11.9901 9.1523C12.1723 8.88734 12.5851 8.32531 12.7279 8.05455Z" fill="var(--fill-0, white)"/>
<path id="Vector_33" d="M11.822 9.37116L11.9042 9.43665C11.8412 9.53316 11.7957 9.59734 11.7236 9.68724L11.617 9.63083L11.822 9.37116Z" fill="var(--fill-0, white)"/>
<path id="Vector_34" d="M9.94401 3.18411C10.1457 3.10414 10.4055 3.01544 10.6192 2.97806L10.6355 2.99556L10.6286 2.97671L10.6544 2.98136C10.6344 2.97333 10.6354 2.97199 10.6145 2.97536L10.612 3.00239C10.3771 3.08259 10.1566 3.17627 9.93555 3.25292L9.94401 3.18411Z" fill="var(--fill-0, white)" fill-opacity="0.980392"/>
<path id="Vector_35" d="M11.99 9.15234L12.089 9.1754C12.0309 9.26372 11.9733 9.3568 11.9045 9.43671L11.8223 9.37122L11.99 9.15234Z" fill="var(--fill-0, white)"/>
<path id="Vector_36" d="M10.1126 11.3857L10.1088 11.3975C10.0911 11.452 10.0819 11.4628 10.0461 11.5071C10.0509 11.5348 10.0489 11.5377 10.0684 11.5585C9.99648 11.6261 9.78919 11.8038 9.74244 11.8632L9.70898 11.8479C9.83959 11.7097 9.97786 11.533 10.1126 11.3857Z" fill="var(--fill-0, white)"/>
<path id="Vector_37" d="M15.4452 6.83098C15.3726 7.05602 15.2306 7.33702 15.1074 7.54315C15.1063 7.5225 15.3801 6.88652 15.4137 6.80859L15.4452 6.83098Z" fill="var(--fill-0, white)"/>
<path id="Vector_38" d="M12.7285 8.05408C12.7853 7.95562 12.8657 7.81086 12.9467 7.73242C12.8927 7.84251 12.8166 8.00755 12.7499 8.10426L12.7285 8.05408Z" fill="var(--fill-0, #121312)"/>
<path id="Vector_39" d="M9.43945 12.1275C9.52803 12.0087 9.59245 11.9446 9.70704 11.8477L9.74049 11.8629C9.67367 11.9482 9.52534 12.0602 9.43945 12.1275Z" fill="var(--fill-0, #121312)"/>
</g>
<defs>
<clipPath id="clip0_0_15">
<rect width="16.8913" height="30.0216" fill="white"/>
</clipPath>
</defs>
</svg>
