<svg width="24" height="24" viewBox="0 0 24 24" fill="none" xmlns="http://www.w3.org/2000/svg">
<path d="M12.5922 23.2584L12.5802 23.2604L12.5092 23.2954L12.4892 23.2994L12.4752 23.2954L12.4042 23.2594C12.3936 23.2568 12.3856 23.2588 12.3802 23.2654L12.3762 23.2754L12.3592 23.7034L12.3642 23.7234L12.3742 23.7364L12.4782 23.8104L12.4932 23.8144L12.5052 23.8104L12.6092 23.7364L12.6212 23.7204L12.6252 23.7034L12.6082 23.2764C12.6056 23.2658 12.6002 23.2598 12.5922 23.2584ZM12.8562 23.1454L12.8422 23.1474L12.6582 23.2404L12.6482 23.2504L12.6452 23.2614L12.6632 23.6914L12.6682 23.7034L12.6762 23.7114L12.8772 23.8034C12.8899 23.8068 12.8996 23.8041 12.9062 23.7954L12.9102 23.7814L12.8762 23.1674C12.8729 23.1548 12.8662 23.1474 12.8562 23.1454ZM12.1412 23.1474C12.1368 23.1448 12.1315 23.1439 12.1265 23.145C12.1215 23.1461 12.1171 23.1491 12.1142 23.1534L12.1082 23.1674L12.0742 23.7814C12.0749 23.7934 12.0806 23.8014 12.0912 23.8054L12.1062 23.8034L12.3072 23.7104L12.3172 23.7024L12.3202 23.6914L12.3382 23.2614L12.3352 23.2494L12.3252 23.2394L12.1412 23.1474Z" fill="url(#paint0_linear_4178_10392)"/>
<path d="M9.10613 5.448C9.70413 3.698 12.1221 3.645 12.8311 5.289L12.8911 5.449L13.6981 7.809C13.8831 8.35023 14.1819 8.84551 14.5746 9.26142C14.9672 9.67734 15.4444 10.0042 15.9741 10.22L16.1911 10.301L18.5511 11.107C20.3011 11.705 20.3541 14.123 18.7111 14.832L18.5511 14.892L16.1911 15.699C15.6497 15.8838 15.1542 16.1826 14.7381 16.5753C14.3221 16.9679 13.995 17.4452 13.7791 17.975L13.6981 18.191L12.8921 20.552C12.2941 22.302 9.87613 22.355 9.16813 20.712L9.10613 20.552L8.30013 18.192C8.11531 17.6506 7.8165 17.1551 7.42387 16.739C7.03124 16.3229 6.55392 15.9959 6.02413 15.78L5.80813 15.699L3.44813 14.893C1.69713 14.295 1.64413 11.877 3.28813 11.169L3.44813 11.107L5.80813 10.301C6.34936 10.1161 6.84464 9.81719 7.26055 9.42457C7.67646 9.03195 8.00334 8.55469 8.21913 8.025L8.30013 7.809L9.10613 5.448ZM18.9991 2C19.1862 2 19.3695 2.05248 19.5283 2.15147C19.687 2.25046 19.8148 2.392 19.8971 2.56L19.9451 2.677L20.2951 3.703L21.3221 4.053C21.5096 4.1167 21.674 4.23462 21.7944 4.39182C21.9148 4.54902 21.9858 4.73842 21.9984 4.93602C22.011 5.13362 21.9647 5.33053 21.8653 5.50179C21.766 5.67304 21.618 5.81094 21.4401 5.898L21.3221 5.946L20.2961 6.296L19.9461 7.323C19.8823 7.51043 19.7643 7.6747 19.6071 7.79499C19.4498 7.91529 19.2604 7.98619 19.0628 7.99872C18.8652 8.01125 18.6683 7.96484 18.4971 7.86538C18.3259 7.76591 18.1881 7.61787 18.1011 7.44L18.0531 7.323L17.7031 6.297L16.6761 5.947C16.4886 5.8833 16.3243 5.76538 16.2039 5.60819C16.0835 5.45099 16.0125 5.26158 15.9999 5.06398C15.9872 4.86638 16.0335 4.66947 16.1329 4.49821C16.2323 4.32696 16.3803 4.18906 16.5581 4.102L16.6761 4.054L17.7021 3.704L18.0521 2.677C18.1196 2.47943 18.2471 2.30791 18.417 2.1865C18.5868 2.06509 18.7904 1.99987 18.9991 2Z" fill="url(#paint1_linear_4178_10392)"/>
<defs>
<linearGradient id="paint0_linear_4178_10392" x1="12.4922" y1="23.1445" x2="12.4922" y2="23.8144" gradientUnits="userSpaceOnUse">
<stop stop-color="#019447"/>
<stop offset="1" stop-color="#34D356"/>
</linearGradient>
<linearGradient id="paint1_linear_4178_10392" x1="12.0471" y1="2" x2="12.0471" y2="21.9056" gradientUnits="userSpaceOnUse">
<stop stop-color="#019447"/>
<stop offset="1" stop-color="#34D356"/>
</linearGradient>
</defs>
</svg>
