<svg preserveAspectRatio="none" width="100%" height="100%" overflow="visible" style="display: block;" viewBox="0 0 21.3333 7.40136" fill="none" xmlns="http://www.w3.org/2000/svg">
<g id="Audi-Logo_2016" clip-path="url(#clip0_0_4)">
<path id="Vector" d="M3.70139 0.435547C2.84528 0.4641 2.03467 0.827916 1.4443 1.44857C0.853938 2.06922 0.531098 2.897 0.545376 3.75347C0.559655 4.60993 0.909908 5.42649 1.52063 6.02712C2.13136 6.62775 2.95364 6.96434 3.81023 6.96434C4.66682 6.96434 5.4891 6.62775 6.09982 6.02712C6.71055 5.42649 7.0608 4.60993 7.07508 3.75347C7.08936 2.897 6.76652 2.06922 6.17616 1.44857C5.58579 0.827916 4.77518 0.4641 3.91907 0.435547H3.70139ZM8.27281 0.435547C7.4167 0.4641 6.6061 0.827916 6.01573 1.44857C5.42537 2.06922 5.10253 2.897 5.11681 3.75347C5.13108 4.60993 5.48134 5.42649 6.09206 6.02712C6.70279 6.62775 7.52507 6.96434 8.38166 6.96434C9.23824 6.96434 10.0605 6.62775 10.6713 6.02712C11.282 5.42649 11.6322 4.60993 11.6465 3.75347C11.6608 2.897 11.3379 2.06922 10.7476 1.44857C10.1572 0.827916 9.34661 0.4641 8.4905 0.435547H8.27281ZM12.8442 0.435547C11.9881 0.4641 11.1775 0.827916 10.5872 1.44857C9.9968 2.06922 9.67396 2.897 9.68823 3.75347C9.70251 4.60993 10.0528 5.42649 10.6635 6.02712C11.2742 6.62775 12.0965 6.96434 12.9531 6.96434C13.8097 6.96434 14.632 6.62775 15.2427 6.02712C15.8534 5.42649 16.2037 4.60993 16.2179 3.75347C16.2322 2.897 15.9094 2.06922 15.319 1.44857C14.7286 0.827916 13.918 0.4641 13.0619 0.435547H12.8442ZM17.4157 0.435547C16.5596 0.4641 15.749 0.827916 15.1586 1.44857C14.5682 2.06922 14.2454 2.897 14.2597 3.75347C14.2739 4.60993 14.6242 5.42649 15.2349 6.02712C15.8456 6.62775 16.6679 6.96434 17.5245 6.96434C18.3811 6.96434 19.2034 6.62775 19.8141 6.02712C20.4248 5.42649 20.7751 4.60993 20.7894 3.75347C20.8036 2.897 20.4808 2.06922 19.8904 1.44857C19.3001 0.827916 18.4895 0.4641 17.6334 0.435547H17.4157Z" stroke="var(--stroke-0, #121312)" stroke-width="0.666667"/>
</g>
<defs>
<clipPath id="clip0_0_4">
<rect width="21.3333" height="7.40136" fill="white"/>
</clipPath>
</defs>
</svg>
