<svg preserveAspectRatio="none" width="100%" height="100%" overflow="visible" style="display: block;" viewBox="0 0 21.3333 21.3333" fill="none" xmlns="http://www.w3.org/2000/svg">
<g id="BMW" clip-path="url(#clip0_0_4)">
<path id="Vector" d="M10.6669 0.0175781C4.78351 0.0175781 0.0136719 4.78695 0.0136719 10.6705C0.0136719 16.554 4.78351 21.3235 10.6669 21.3235C16.5507 21.3235 21.32 16.554 21.32 10.6705C21.3201 4.78695 16.5507 0.0175781 10.6669 0.0175781V0.0175781ZM10.6669 20.7908C5.07736 20.7908 0.546795 16.2599 0.546795 10.6705C0.546795 5.08127 5.07736 0.550092 10.6669 0.550092C16.2564 0.550092 20.7873 5.08125 20.7873 10.6705C20.7873 16.2599 16.2564 20.7908 10.6669 20.7908V20.7908Z" fill="url(#paint0_linear_0_4)"/>
<path id="Vector_2" d="M20.8639 10.6692C20.8639 16.3002 16.2982 20.8658 10.6672 20.8658C5.03603 20.8658 0.470825 16.3002 0.470825 10.6692C0.470825 5.03786 5.03603 0.472656 10.6672 0.472656C16.2982 0.472656 20.8639 5.03786 20.8639 10.6692Z" fill="var(--fill-0, #333333)"/>
<path id="Vector_3" d="M20.7874 10.6712C20.7874 16.2606 16.2564 20.7915 10.667 20.7915C5.07744 20.7915 0.546875 16.2606 0.546875 10.6712C0.546875 5.08196 5.07744 0.550781 10.667 0.550781C16.2564 0.550781 20.7874 5.08196 20.7874 10.6712V10.6712Z" fill="url(#paint1_radial_0_4)"/>
<path id="Vector_4" d="M17.4528 10.6697C17.4528 14.4168 14.415 17.4544 10.6678 17.4544C6.92055 17.4544 3.88281 14.4169 3.88281 10.6697C3.88281 6.92244 6.92055 3.88477 10.6678 3.88477C14.415 3.88477 17.4528 6.92246 17.4528 10.6697V10.6697Z" fill="url(#paint2_linear_0_4)"/>
<path id="Vector_5" d="M10.9386 3.70267L11.6434 1.83465V3.70267H12.1787V1.02734H11.3742L10.6425 2.94285H10.6494L9.91777 1.02734H9.11328V3.70267H9.64859V1.83465L10.3534 3.70267H10.9386Z" fill="var(--fill-0, #121312)"/>
<path id="Vector_6" d="M18.2844 4.90027L17.3698 6.23381L18.8064 5.52728L19.196 5.99454L16.9351 7.12977L16.4783 6.57667L17.3547 5.25529L17.3495 5.24877L15.8917 5.87272L15.4297 5.32335L16.9542 3.30469L17.3439 3.77219L16.3893 5.05764L17.8666 4.39874L18.2844 4.90027Z" fill="var(--fill-0, #121312)"/>
<path id="Vector_7" d="M5.92843 4.39116C5.71297 4.18201 5.38051 4.11896 5.06797 4.3127C5.12781 4.15794 5.10351 4.00041 5.07188 3.91304C4.93707 3.66793 4.88982 3.63693 4.77975 3.54394C4.4204 3.24288 4.04239 3.49995 3.77235 3.82178L2.4668 5.37771L4.51923 7.09961L5.89591 5.45921C6.21058 5.08429 6.25915 4.71259 5.92843 4.39116ZM3.27341 5.14151L4.05761 4.20696C4.14862 4.0988 4.35409 4.10313 4.48586 4.21413C4.63105 4.33593 4.63147 4.50842 4.53397 4.62482L3.75848 5.54856L3.27341 5.14151ZM5.43688 5.29689L4.61936 6.27114L4.10747 5.8409L4.93106 4.85913C5.02425 4.74813 5.23189 4.71585 5.37189 4.8333C5.52963 4.96596 5.54523 5.16774 5.43688 5.29689V5.29689Z" fill="var(--fill-0, #333333)"/>
<path id="Vector_8" d="M10.9446 3.5972L11.6494 1.72922V3.5972H12.1848V0.921875H11.3802L10.6486 2.83731H10.6555L9.92381 0.921875H9.11926V3.5972H9.65461V1.72922L10.3595 3.5972H10.9446Z" fill="url(#paint3_radial_0_4)"/>
<path id="Vector_9" d="M18.2899 4.72252L17.3757 6.05609L18.8122 5.34934L19.2015 5.81682L16.9409 6.95205L16.4841 6.39875L17.3605 5.07753L17.3554 5.07083L15.8971 5.69502L15.4355 5.14538L16.96 3.12695L17.3497 3.59427L16.3952 4.87969L17.872 4.22105L18.2899 4.72252Z" fill="url(#paint4_radial_0_4)"/>
<path id="Vector_10" d="M5.83275 4.33656C5.61773 4.12741 5.28483 4.06431 4.97277 4.25789C5.03213 4.10311 5.00787 3.94556 4.97626 3.85863C4.84143 3.6131 4.79462 3.58251 4.68363 3.48934C4.3243 3.18809 3.94675 3.44531 3.67714 3.76743L2.37109 5.3231L4.42357 7.04503L5.80023 5.40438C6.11452 5.02944 6.16347 4.65799 5.83275 4.33656V4.33656ZM3.17781 5.08686L3.96193 4.15254C4.05256 4.0442 4.25799 4.04853 4.39019 4.15925C4.53541 4.28128 4.53585 4.45399 4.43786 4.56994L3.66286 5.49388L3.17781 5.08686ZM5.34166 5.24225L4.52414 6.21648L4.01134 5.78624L4.8354 4.80425C4.92857 4.69351 5.13577 4.6612 5.27579 4.77869C5.43441 4.91153 5.45003 5.11288 5.34166 5.24225V5.24225Z" fill="url(#paint5_radial_0_4)"/>
<path id="Vector_11" d="M4.10742 10.6707C4.10742 7.04806 7.04415 4.11133 10.6666 4.11133C14.2894 4.11133 17.2257 7.04806 17.2257 10.6707C17.2257 14.2932 14.2894 17.2298 10.6666 17.2298C7.04413 17.2298 4.10742 14.2932 4.10742 10.6707Z" fill="url(#paint6_radial_0_4)"/>
<path id="Vector_12" d="M4.29671 10.6697C4.29671 7.15125 7.14891 4.29883 10.6673 4.29883C14.1858 4.29883 17.0383 7.15123 17.0383 10.6697C17.0383 14.1881 14.1857 17.0405 10.6673 17.0405C7.14893 17.0405 4.29671 14.1881 4.29671 10.6697V10.6697Z" fill="url(#paint7_radial_0_4)"/>
<path id="Vector_13" d="M4.28711 10.6696H10.6677V4.28906C7.14361 4.28906 4.28711 7.14559 4.28711 10.6696Z" fill="url(#paint8_radial_0_4)"/>
<path id="Vector_14" d="M10.668 10.6699V17.0506C14.192 17.0506 17.0485 14.1935 17.0485 10.6699H10.668Z" fill="url(#paint9_radial_0_4)"/>
<path id="Vector_15" d="M17.1013 10.5566H10.781V4.23633H10.5547V10.5566H4.23438V10.7829H10.5547V17.1034H10.781V10.7829H17.1013V10.5566Z" fill="url(#paint10_radial_0_4)"/>
<path id="Vector_16" d="M10.7813 4.41606C14.1471 4.47592 16.8632 7.19175 16.9234 10.5574H17.0361C16.9759 7.12933 14.2095 4.36257 10.7812 4.30273V4.41606H10.7813Z" fill="url(#paint11_linear_0_4)"/>
<path id="Vector_17" d="M4.40025 10.5561C4.46005 7.18589 7.18001 4.46616 10.5502 4.40611V4.29297C7.11721 4.353 4.34737 7.12345 4.28711 10.5561H4.40025V10.5561Z" fill="var(--fill-0, #C2D7E8)"/>
<path id="Vector_18" d="M10.5536 16.9248C7.18782 16.8651 4.47176 14.149 4.41193 10.7832H4.29883C4.35907 14.2114 7.12542 16.9783 10.5537 17.0381V16.9248H10.5536Z" fill="url(#paint12_linear_0_4)"/>
<path id="Vector_19" d="M16.9234 10.7832C16.8632 14.149 14.1471 16.8651 10.7812 16.9248V17.0381C14.2095 16.9783 16.9763 14.2114 17.0361 10.7832H16.9234Z" fill="var(--fill-0, #12404F)"/>
<path id="Vector_20" d="M10.4326 4.29297V10.4327H4.29297V10.5539H10.4326H10.5535V10.4327V4.29297H10.4326Z" fill="url(#paint13_linear_0_4)"/>
<path id="Vector_21" d="M10.4222 16.9785V10.9126H4.34375V10.793H10.4222H10.5418V10.9126V16.9785H10.4222Z" fill="url(#paint14_linear_0_4)"/>
<path id="Vector_22" d="M10.9101 16.9785V10.9126H16.976V10.793H10.9101H10.7909V10.9126V16.9785H10.9101Z" fill="url(#paint15_linear_0_4)"/>
<path id="Vector_23" d="M10.9101 4.34766V10.4135H16.976V10.5329H10.9101H10.7909V10.4135V4.34766H10.9101Z" fill="url(#paint16_linear_0_4)"/>
</g>
<defs>
<linearGradient id="paint0_linear_0_4" x1="-1.5458" y1="-1.13103" x2="21.058" y2="20.7117" gradientUnits="userSpaceOnUse">
<stop stop-color="#DFF4FF"/>
<stop offset="0.0984" stop-color="#D6EAF5"/>
<stop offset="0.2678" stop-color="#BFD0D9"/>
<stop offset="0.4879" stop-color="#98A5AC"/>
<stop offset="0.7469" stop-color="#646B6E"/>
<stop offset="1" stop-color="#2B2B2B"/>
</linearGradient>
<radialGradient id="paint1_radial_0_4" cx="0" cy="0" r="1" gradientUnits="userSpaceOnUse" gradientTransform="translate(-0.119028 0.722835) scale(15.1353 15.1353)">
<stop stop-color="white"/>
<stop offset="0.3064" stop-color="#A8A8A8"/>
<stop offset="0.6461" stop-color="#4F4F4F"/>
<stop offset="0.8853" stop-color="#161616"/>
<stop offset="1"/>
</radialGradient>
<linearGradient id="paint2_linear_0_4" x1="18.4461" y1="18.186" x2="4.04979" y2="4.27446" gradientUnits="userSpaceOnUse">
<stop stop-color="#DFF4FF"/>
<stop offset="0.0855" stop-color="#D6EAF5"/>
<stop offset="0.2327" stop-color="#BED0D9"/>
<stop offset="0.4239" stop-color="#96A4AC"/>
<stop offset="0.6516" stop-color="#5F686D"/>
<stop offset="0.9075" stop-color="#1A1D1E"/>
<stop offset="1"/>
</linearGradient>
<radialGradient id="paint3_radial_0_4" cx="0" cy="0" r="1" gradientUnits="userSpaceOnUse" gradientTransform="translate(-2.83704 -0.820837) scale(36.3678 36.3678)">
<stop stop-color="white"/>
<stop offset="0.3102" stop-color="#FDFDFD"/>
<stop offset="0.4505" stop-color="#F6F6F6"/>
<stop offset="0.5567" stop-color="#E9E9E9"/>
<stop offset="0.6456" stop-color="#D7D7D7"/>
<stop offset="0.7238" stop-color="#BFBFBF"/>
<stop offset="0.7944" stop-color="#A2A2A2"/>
<stop offset="0.8593" stop-color="#808080"/>
<stop offset="0.9199" stop-color="#575757"/>
<stop offset="0.9746" stop-color="#2B2B2B"/>
<stop offset="1" stop-color="#141414"/>
</radialGradient>
<radialGradient id="paint4_radial_0_4" cx="0" cy="0" r="1" gradientUnits="userSpaceOnUse" gradientTransform="translate(-2.83929 -0.819007) scale(36.3709 36.3709)">
<stop stop-color="white"/>
<stop offset="0.3102" stop-color="#FDFDFD"/>
<stop offset="0.4505" stop-color="#F6F6F6"/>
<stop offset="0.5567" stop-color="#E9E9E9"/>
<stop offset="0.6456" stop-color="#D7D7D7"/>
<stop offset="0.7238" stop-color="#BFBFBF"/>
<stop offset="0.7944" stop-color="#A2A2A2"/>
<stop offset="0.8593" stop-color="#808080"/>
<stop offset="0.9199" stop-color="#575757"/>
<stop offset="0.9746" stop-color="#2B2B2B"/>
<stop offset="1" stop-color="#141414"/>
</radialGradient>
<radialGradient id="paint5_radial_0_4" cx="0" cy="0" r="1" gradientUnits="userSpaceOnUse" gradientTransform="translate(-2.8411 -0.831422) scale(36.3988)">
<stop stop-color="white"/>
<stop offset="0.3102" stop-color="#FDFDFD"/>
<stop offset="0.4505" stop-color="#F6F6F6"/>
<stop offset="0.5567" stop-color="#E9E9E9"/>
<stop offset="0.6456" stop-color="#D7D7D7"/>
<stop offset="0.7238" stop-color="#BFBFBF"/>
<stop offset="0.7944" stop-color="#A2A2A2"/>
<stop offset="0.8593" stop-color="#808080"/>
<stop offset="0.9199" stop-color="#575757"/>
<stop offset="0.9746" stop-color="#2B2B2B"/>
<stop offset="1" stop-color="#141414"/>
</radialGradient>
<radialGradient id="paint6_radial_0_4" cx="0" cy="0" r="1" gradientUnits="userSpaceOnUse" gradientTransform="translate(3.67582 4.22283) scale(9.80951 9.80951)">
<stop stop-color="#E6E6E6"/>
<stop offset="0.1045" stop-color="#D6D6D6"/>
<stop offset="0.3074" stop-color="#ADADAD"/>
<stop offset="0.5884" stop-color="#6C6C6C"/>
<stop offset="0.9335" stop-color="#121212"/>
<stop offset="1"/>
</radialGradient>
<radialGradient id="paint7_radial_0_4" cx="0" cy="0" r="1" gradientUnits="userSpaceOnUse" gradientTransform="translate(6.35957 5.54116) scale(14.2658)">
<stop stop-color="white"/>
<stop offset="0.3435" stop-color="#FDFDFD"/>
<stop offset="0.4814" stop-color="#F6F6F6"/>
<stop offset="0.5824" stop-color="#EAEAEA"/>
<stop offset="0.6654" stop-color="#D8D8D8"/>
<stop offset="0.7373" stop-color="#C2C2C2"/>
<stop offset="0.8016" stop-color="#A6A6A6"/>
<stop offset="0.8602" stop-color="#848484"/>
<stop offset="0.9126" stop-color="#5F5F5F"/>
<stop offset="0.9494" stop-color="#404040"/>
<stop offset="0.9566" stop-color="#404040"/>
<stop offset="1"/>
</radialGradient>
<radialGradient id="paint8_radial_0_4" cx="0" cy="0" r="1" gradientUnits="userSpaceOnUse" gradientTransform="translate(2.17131 0.133427) scale(25.265)">
<stop offset="0.1685" stop-color="white"/>
<stop offset="0.1957" stop-color="#E0EFF7"/>
<stop offset="0.2406" stop-color="#B2D9EC"/>
<stop offset="0.2872" stop-color="#8BC5E2"/>
<stop offset="0.335" stop-color="#6BB5DA"/>
<stop offset="0.3844" stop-color="#52A9D4"/>
<stop offset="0.4359" stop-color="#41A0CF"/>
<stop offset="0.4911" stop-color="#369BCD"/>
<stop offset="0.5562" stop-color="#3399CC"/>
<stop offset="0.606" stop-color="#3396C8"/>
<stop offset="0.6553" stop-color="#328EBC"/>
<stop offset="0.7045" stop-color="#3180A8"/>
<stop offset="0.7536" stop-color="#2F6D8C"/>
<stop offset="0.8027" stop-color="#2D5468"/>
<stop offset="0.8512" stop-color="#2A373D"/>
<stop offset="0.8708" stop-color="#292929"/>
</radialGradient>
<radialGradient id="paint9_radial_0_4" cx="0" cy="0" r="1" gradientUnits="userSpaceOnUse" gradientTransform="translate(2.17159 0.13355) scale(25.2645 25.2645)">
<stop offset="0.1685" stop-color="white"/>
<stop offset="0.1957" stop-color="#E0EFF7"/>
<stop offset="0.2406" stop-color="#B2D9EC"/>
<stop offset="0.2872" stop-color="#8BC5E2"/>
<stop offset="0.335" stop-color="#6BB5DA"/>
<stop offset="0.3844" stop-color="#52A9D4"/>
<stop offset="0.4359" stop-color="#41A0CF"/>
<stop offset="0.4911" stop-color="#369BCD"/>
<stop offset="0.5562" stop-color="#3399CC"/>
<stop offset="0.606" stop-color="#3396C8"/>
<stop offset="0.6553" stop-color="#328EBC"/>
<stop offset="0.7045" stop-color="#3180A8"/>
<stop offset="0.7536" stop-color="#2F6D8C"/>
<stop offset="0.8027" stop-color="#2D5468"/>
<stop offset="0.8512" stop-color="#2A373D"/>
<stop offset="0.8708" stop-color="#292929"/>
</radialGradient>
<radialGradient id="paint10_radial_0_4" cx="0" cy="0" r="1" gradientUnits="userSpaceOnUse" gradientTransform="translate(3.81106 4.34571) scale(9.6215)">
<stop stop-color="#E6E6E6"/>
<stop offset="0.1045" stop-color="#D6D6D6"/>
<stop offset="0.3074" stop-color="#ADADAD"/>
<stop offset="0.5884" stop-color="#6C6C6C"/>
<stop offset="0.9335" stop-color="#121212"/>
<stop offset="1"/>
</radialGradient>
<linearGradient id="paint11_linear_0_4" x1="9.40655" y1="1.94408" x2="18.7894" y2="11.011" gradientUnits="userSpaceOnUse">
<stop stop-color="#F0F4FF"/>
<stop offset="0.1086" stop-color="#EBEFF9"/>
<stop offset="0.2475" stop-color="#DCE0EA"/>
<stop offset="0.4028" stop-color="#C4C7CF"/>
<stop offset="0.5701" stop-color="#A2A4AB"/>
<stop offset="0.7469" stop-color="#76777C"/>
<stop offset="0.9291" stop-color="#414243"/>
<stop offset="1" stop-color="#2B2B2B"/>
</linearGradient>
<linearGradient id="paint12_linear_0_4" x1="1.78935" y1="9.59873" x2="11.1724" y2="18.6658" gradientUnits="userSpaceOnUse">
<stop stop-color="#F0F4FF"/>
<stop offset="0.1086" stop-color="#EBEFF9"/>
<stop offset="0.2475" stop-color="#DCE0EA"/>
<stop offset="0.4028" stop-color="#C4C7CF"/>
<stop offset="0.5701" stop-color="#A2A4AB"/>
<stop offset="0.7469" stop-color="#76777C"/>
<stop offset="0.9291" stop-color="#414243"/>
<stop offset="1" stop-color="#2B2B2B"/>
</linearGradient>
<linearGradient id="paint13_linear_0_4" x1="6.32846" y1="6.36555" x2="11.1939" y2="11.0672" gradientUnits="userSpaceOnUse">
<stop stop-color="#C2D7E8"/>
<stop offset="0.1337" stop-color="#BACFE1"/>
<stop offset="0.3425" stop-color="#A4BACD"/>
<stop offset="0.6001" stop-color="#8098AC"/>
<stop offset="0.894" stop-color="#4E697F"/>
<stop offset="1" stop-color="#3A566D"/>
</linearGradient>
<linearGradient id="paint14_linear_0_4" x1="3.89176" y1="7.5174" x2="13.1803" y2="16.4932" gradientUnits="userSpaceOnUse">
<stop stop-color="#F0F4FF"/>
<stop offset="0.0973" stop-color="#E8EBF6"/>
<stop offset="0.2568" stop-color="#D1D4DD"/>
<stop offset="0.4587" stop-color="#ABAEB5"/>
<stop offset="0.6951" stop-color="#78797D"/>
<stop offset="0.9578" stop-color="#363637"/>
<stop offset="1" stop-color="#2B2B2B"/>
</linearGradient>
<linearGradient id="paint15_linear_0_4" x1="10.7388" y1="10.8469" x2="13.9969" y2="13.9954" gradientUnits="userSpaceOnUse">
<stop stop-color="#D9DEF0"/>
<stop offset="0.1229" stop-color="#D4DAEC"/>
<stop offset="0.2629" stop-color="#C7CFE2"/>
<stop offset="0.4114" stop-color="#B0BCD1"/>
<stop offset="0.5657" stop-color="#90A1B8"/>
<stop offset="0.7246" stop-color="#677F99"/>
<stop offset="0.8849" stop-color="#355674"/>
<stop offset="0.9719" stop-color="#173D5D"/>
</linearGradient>
<linearGradient id="paint16_linear_0_4" x1="7.40574" y1="4.11152" x2="16.6843" y2="13.0776" gradientUnits="userSpaceOnUse">
<stop stop-color="#F0F4FF"/>
<stop offset="0.1086" stop-color="#EBEFF9"/>
<stop offset="0.2475" stop-color="#DCE0EA"/>
<stop offset="0.4028" stop-color="#C4C7CF"/>
<stop offset="0.5701" stop-color="#A2A4AB"/>
<stop offset="0.7469" stop-color="#76777C"/>
<stop offset="0.9291" stop-color="#414243"/>
<stop offset="1" stop-color="#2B2B2B"/>
</linearGradient>
<clipPath id="clip0_0_4">
<rect width="21.3333" height="21.3333" fill="white"/>
</clipPath>
</defs>
</svg>
