<svg preserveAspectRatio="none" width="100%" height="100%" overflow="visible" style="display: block;" viewBox="0 0 32 32" fill="none" xmlns="http://www.w3.org/2000/svg">
<g id="citroen">
<path id="Vector" fill-rule="evenodd" clip-rule="evenodd" d="M26.0231 24.8604C24.1606 23.2635 18.6274 18.7196 16.0007 18.7196C13.3728 18.7196 7.84374 23.2605 5.98015 24.8585C5.96895 24.481 5.95853 24.2517 5.95853 23.9155C5.95853 23.9155 5.91298 23.3604 6.40397 22.805C10.4438 19.1446 14.6794 17.3535 14.8095 17.2987C16.0724 16.7649 16.0014 16.8652 16.0003 14.723C16.0003 14.723 16.0566 14.7195 16.0925 14.7233C17.8712 14.8843 22.6533 19.5255 25.4835 22.6633C25.4885 22.6687 26.042 23.3095 26.042 23.985C26.0428 24.3015 26.0335 24.6138 26.0231 24.8604ZM25.947 22.241C25.6464 21.9075 18.5645 14.0903 16.0007 14.0903C13.4376 14.0903 6.35533 21.9075 6.05503 22.2406L6.05464 22.241C6.02531 22.2738 5.33398 23.064 5.33398 23.9854C5.33398 24.7025 5.38146 25.4244 5.38223 25.4313C5.38378 25.4645 5.40038 25.7694 5.56983 25.8524C5.59723 25.8659 5.62696 25.8729 5.65745 25.8729C5.72037 25.8729 5.79062 25.8447 5.86666 25.7891C5.94309 25.7216 13.1578 19.3491 16.0007 19.3491C18.8439 19.3491 26.059 25.7216 26.1312 25.786C26.2099 25.8439 26.2809 25.8729 26.3446 25.8729C26.3755 25.8729 26.4045 25.8659 26.4322 25.8528C26.6013 25.7702 26.6179 25.4649 26.6195 25.4305C26.6198 25.4251 26.6673 24.7033 26.6673 23.9861C26.6673 23.064 25.976 22.2738 25.947 22.241ZM26.0131 17.4253C24.1525 15.8304 18.6247 11.291 16.001 11.291C13.3759 11.291 7.85223 15.8277 5.99057 17.4238C5.97937 17.047 5.96895 16.8174 5.96895 16.4819C5.96895 16.4819 5.9234 15.9273 6.41401 15.3726C10.45 11.7156 14.6813 9.92654 14.811 9.87173C16.0728 9.33828 16.0018 9.43864 16.0007 7.29867C16.0007 7.29867 16.0566 7.29519 16.0929 7.29905C17.8697 7.46001 22.6471 12.0966 25.4742 15.2309C25.4792 15.2363 26.0324 15.8763 26.0324 16.5514C26.0327 16.8672 26.0231 17.1791 26.0131 17.4253ZM25.937 14.8086C25.6363 14.4755 18.5617 6.66602 16.0007 6.66602C13.4403 6.66602 6.36498 14.4755 6.06506 14.8083L6.06468 14.8086C6.03534 14.8415 5.34441 15.6308 5.34441 16.5514C5.34441 17.2678 5.39227 17.9889 5.39266 17.9958C5.3942 18.029 5.4108 18.3336 5.57987 18.4166C5.60727 18.4301 5.63699 18.4366 5.66749 18.4366C5.7304 18.4366 5.80027 18.4085 5.87631 18.3529C5.95313 18.2853 13.1605 11.9194 16.0007 11.9194C18.8412 11.9194 26.0489 18.2853 26.1211 18.3498C26.1995 18.4077 26.2705 18.4363 26.3342 18.4363C26.3651 18.4363 26.394 18.4297 26.4218 18.4162C26.5905 18.3336 26.6075 18.0286 26.6086 17.9943C26.609 17.9889 26.6565 17.2678 26.6565 16.5514C26.6569 15.6308 25.9663 14.8415 25.937 14.8086Z" fill="var(--fill-0, #6E6E6E)"/>
</g>
</svg>
