<svg preserveAspectRatio="none" width="100%" height="100%" overflow="visible" style="display: block;" viewBox="0 0 21.0838 7.9059" fill="none" xmlns="http://www.w3.org/2000/svg">
<g id="layer1">
<path id="path737" d="M10.5418 0C4.69048 0 0 1.75389 0 3.95287C0 6.13846 4.72913 7.9059 10.5418 7.9059C16.3547 7.9059 21.0838 6.13253 21.0838 3.95287C21.0838 1.77321 16.3547 0 10.5418 0Z" fill="var(--fill-0, #003478)"/>
<path id="path741" d="M14.6948 4.79043C14.6976 4.80854 14.7214 4.82588 14.7444 4.83409C14.7529 4.83692 14.757 4.84258 14.7482 4.86181C14.6826 5.00251 14.6222 5.08362 14.5399 5.20588C14.4642 5.31883 14.3789 5.40696 14.2757 5.49173C14.12 5.62057 13.9038 5.76083 13.725 5.66654C13.6456 5.62534 13.6113 5.5142 13.6128 5.42423C13.6166 5.17124 13.7291 4.91151 13.9369 4.65625C14.1903 4.34433 14.4704 4.18255 14.6542 4.27098C14.8444 4.36169 14.7837 4.58188 14.6985 4.75471C14.6919 4.7681 14.6919 4.77941 14.6947 4.79035M16.7356 2.81911C16.7493 2.79497 16.7349 2.77734 16.7044 2.77734C16.5455 2.77734 16.3371 2.7777 16.1716 2.7777C16.1322 2.7777 16.1118 2.78241 16.0932 2.81918C16.0321 2.93623 15.2876 4.05203 15.1491 4.2687C15.1257 4.30171 15.0972 4.29708 15.0939 4.25927C15.0799 4.13057 14.9687 3.98264 14.7936 3.91185C14.6602 3.85772 14.5297 3.84791 14.3941 3.86592C14.1492 3.89883 13.931 4.028 13.7392 4.17369C13.4502 4.39344 13.2008 4.67828 12.8788 4.88873C12.703 5.0033 12.4624 5.10322 12.3013 4.95407C12.1556 4.81894 12.172 4.51881 12.395 4.28668C12.4185 4.26235 12.4467 4.28289 12.4423 4.30449C12.4212 4.40947 12.447 4.51387 12.5268 4.58707C12.624 4.67429 12.7633 4.68414 12.8825 4.62592C13.0231 4.55624 13.1057 4.42169 13.1298 4.26898C13.1671 4.03209 12.9847 3.82316 12.7565 3.8064C12.5712 3.79339 12.3934 3.85788 12.2202 4.00083C12.1334 4.07287 12.0841 4.12609 12.009 4.23289C11.9907 4.2592 11.9626 4.26183 11.9634 4.22298C11.9719 3.91969 11.8466 3.74906 11.5959 3.74349C11.4012 3.73878 11.1933 3.84444 11.0313 3.97365C10.8536 4.11632 10.6983 4.3054 10.5317 4.48307C10.511 4.50495 10.493 4.50391 10.4871 4.46148C10.4824 4.26053 10.4316 4.06589 10.3386 3.92768C10.3057 3.87959 10.2364 3.85582 10.1782 3.88825C10.1513 3.90296 10.0578 3.94596 9.98976 4.00077C9.95601 4.02859 9.9428 4.06886 9.95779 4.12046C10.0476 4.42068 10.0279 4.76201 9.90602 5.0503C9.79417 5.31434 9.57683 5.55247 9.32135 5.63308C9.15305 5.68645 8.9781 5.66033 8.86983 5.51112C8.72115 5.3052 8.78119 4.94707 9.00284 4.64972C9.19843 4.38787 9.48138 4.22155 9.76358 4.11445C9.79677 4.10163 9.80366 4.08031 9.79423 4.05212C9.77895 4.00573 9.75443 3.94254 9.74453 3.91371C9.7186 3.84478 9.64615 3.83364 9.55764 3.84326C9.35259 3.86712 9.16761 3.93737 8.9849 4.03521C8.50643 4.29143 8.26654 4.78731 8.16142 5.0526C8.11078 5.18005 8.0675 5.25954 8.01157 5.33003C7.93613 5.42484 7.84144 5.51116 7.66831 5.6632C7.65265 5.67716 7.64096 5.7062 7.65416 5.73326C7.6718 5.76985 7.76185 5.89702 7.78725 5.90836C7.81545 5.92223 7.84816 5.9027 7.86127 5.89346C7.98242 5.81133 8.12737 5.68116 8.19829 5.59288C8.22319 5.56261 8.24875 5.57534 8.26195 5.62126C8.32814 5.85742 8.50147 6.05025 8.74115 6.13092C9.17986 6.27887 9.63489 6.06472 9.97837 5.69191C10.1967 5.45495 10.2754 5.30254 10.3591 5.19896C10.5009 5.02327 10.7806 4.63024 11.1138 4.3779C11.2359 4.28483 11.3805 4.21385 11.4532 4.26099C11.5116 4.2988 11.5304 4.38668 11.4368 4.55694C11.0971 5.17721 10.5974 5.90596 10.5057 6.08268C10.4889 6.11332 10.5038 6.13745 10.5357 6.13745C10.7135 6.13658 10.8896 6.13702 11.051 6.13702C11.0779 6.13608 11.0899 6.12344 11.1033 6.10449C11.364 5.69645 11.6093 5.3081 11.8723 4.90657C11.887 4.88291 11.9005 4.90091 11.9011 4.91128C11.9068 5.00444 11.9294 5.13186 11.9848 5.21553C12.0842 5.37021 12.225 5.43668 12.3812 5.4377C12.5055 5.43959 12.5684 5.42025 12.7024 5.37018C12.8115 5.32972 12.8991 5.27664 12.9663 5.2286C13.0055 5.20125 13.0124 5.24698 13.0114 5.25396C12.9511 5.57789 13.0256 5.96171 13.3475 6.12085C13.7328 6.31081 14.1561 6.0438 14.3996 5.80277C14.4235 5.77957 14.449 5.78202 14.4515 5.83209C14.4571 5.92412 14.4982 6.03333 14.5744 6.10976C14.7785 6.31458 15.1903 6.2334 15.6036 5.9135C15.869 5.70868 16.1467 5.4193 16.3975 5.11287C16.4069 5.10099 16.4137 5.08194 16.3956 5.06261C16.3574 5.02263 16.3021 4.9769 16.2643 4.94168C16.247 4.92697 16.2216 4.93121 16.2071 4.94219C15.95 5.18669 15.7186 5.46552 15.3841 5.69611C15.2713 5.77485 15.0915 5.83836 15.0108 5.72903C14.9793 5.6866 14.9829 5.62792 15.0136 5.55091C15.1111 5.30772 16.6551 2.95706 16.7352 2.81842" fill="var(--fill-0, white)"/>
<path id="path745" d="M9.47116 3.10214C9.47776 3.13703 9.49135 3.14382 9.50719 3.1409C9.58583 3.12515 9.6719 3.06046 9.72285 2.98548C9.76924 2.91749 9.79102 2.81938 9.74491 2.78007C9.7038 2.74471 9.63686 2.7547 9.58723 2.79855C9.4884 2.88586 9.45839 3.00975 9.47113 3.10221M5.53603 6.12802C4.96035 6.1318 4.45319 5.77628 4.39499 5.16041C4.36265 4.81913 4.45911 4.51498 4.65224 4.2644C4.82361 4.04112 5.11358 3.85563 5.35903 3.81031C5.43889 3.79569 5.54621 3.80465 5.59057 3.85783C5.66016 3.93883 5.64016 4.02781 5.57057 4.06331C5.38332 4.15891 5.15799 4.32259 5.0465 4.54609C4.95607 4.72851 4.9378 4.94835 5.07592 5.15779C5.30711 5.50683 5.95152 5.51642 6.5507 4.95978C6.69909 4.82354 6.83188 4.69265 6.96686 4.5376C7.23076 4.23586 7.31854 4.12591 7.66933 3.63932C7.6731 3.63366 7.67499 3.6263 7.6731 3.62271C7.67027 3.61611 7.66557 3.61517 7.6551 3.61423C7.42092 3.62083 7.21675 3.69052 7.0183 3.83882C6.96115 3.8805 6.8789 3.87465 6.84289 3.81977C6.80282 3.75773 6.83158 3.67696 6.89749 3.63135C7.21674 3.40932 7.56547 3.36906 7.92161 3.30895C7.92132 3.30895 7.94632 3.30989 7.96669 3.28311C8.11289 3.09548 8.22328 2.92624 8.37913 2.73649C8.53616 2.54397 8.73899 2.36718 8.89396 2.23439C9.11029 2.04838 9.24902 1.98579 9.39001 1.90907C9.42716 1.88965 9.3853 1.86645 9.37398 1.86645C8.58681 1.71851 7.76861 1.52706 6.98686 1.81647C6.44544 2.01851 6.20817 2.44786 6.3223 2.73475C6.40349 2.93826 6.67113 2.97134 6.92171 2.84872C7.12983 2.74675 7.32242 2.5824 7.45895 2.37084C7.53533 2.25335 7.69628 2.33812 7.60932 2.54214C7.38055 3.07982 6.94352 3.50632 6.41117 3.52433C5.95812 3.53904 5.66581 3.20574 5.66676 2.79455C5.66865 1.98352 6.5715 1.44928 7.52037 1.36941C8.66308 1.27498 9.74541 1.57937 10.88 1.71699C11.7493 1.82226 12.5827 1.82445 13.4565 1.62373C13.5598 1.60128 13.6323 1.66719 13.6255 1.77152C13.6171 1.92233 13.5002 2.06756 13.2124 2.22452C12.8851 2.40402 12.5428 2.45848 12.1852 2.4614C11.3205 2.46895 10.515 2.13155 9.6815 1.95044C9.68244 1.98693 9.69207 2.03039 9.66152 2.05343C9.19982 2.39397 8.78249 2.7398 8.503 3.22552C8.49357 3.23674 8.49828 3.24739 8.51497 3.24626C8.75764 3.23334 8.97587 3.22712 9.20243 3.20901C9.24204 3.20524 9.24353 3.19581 9.24004 3.16696C9.21996 2.99954 9.2689 2.80862 9.41617 2.6773C9.5669 2.54216 9.75562 2.52679 9.88073 2.62412C10.023 2.73495 10.0104 2.93428 9.93259 3.08376C9.85338 3.23544 9.72257 3.31656 9.59703 3.35594C9.59703 3.35594 9.57062 3.3616 9.57458 3.38555C9.5793 3.42384 9.75058 3.51863 9.76521 3.54388C9.77935 3.56793 9.77182 3.60518 9.74607 3.63375C9.72797 3.6545 9.69959 3.67392 9.66329 3.67326C9.63396 3.67268 9.61614 3.66251 9.57861 3.64224C9.50186 3.60066 9.40593 3.53229 9.34194 3.45168C9.32016 3.42443 9.30903 3.42387 9.25462 3.42689C9.00945 3.44104 8.62719 3.478 8.36819 3.51034C8.30539 3.51789 8.29615 3.52986 8.28323 3.55164C7.87029 4.23258 7.42937 4.9669 6.94528 5.45854C6.42604 5.98568 5.99443 6.12447 5.53624 6.12807" fill="var(--fill-0, white)"/>
<path id="path749" d="M10.5411 0.645754C5.15804 0.645754 0.794639 2.13328 0.794639 3.9535C0.794639 5.77387 5.15804 7.26151 10.5411 7.26151C15.9241 7.26151 20.2872 5.77387 20.2872 3.9535C20.2872 2.13328 15.9241 0.645754 10.5411 0.645754ZM10.5411 7.56129C4.96208 7.56129 0.439453 5.94604 0.439453 3.9535C0.439453 1.96066 4.96208 0.345703 10.5411 0.345703C16.1196 0.345703 20.642 1.96066 20.642 3.9535C20.642 5.94604 16.1196 7.56129 10.5411 7.56129" fill="var(--fill-0, white)"/>
</g>
</svg>
