<svg preserveAspectRatio="none" width="100%" height="100%" overflow="visible" style="display: block;" viewBox="0 0 21.3333 5.01921" fill="none" xmlns="http://www.w3.org/2000/svg">
<g id="KIA_logo3" clip-path="url(#clip0_0_4)">
<path id="Vector" d="M12.3764 4.44321C12.3764 4.48371 12.3892 4.50721 12.4127 4.50721C12.4326 4.50721 12.449 4.49656 12.4639 4.48585L19.1129 0.170582C19.2252 0.0920562 19.3598 0.0516707 19.4968 0.0553699H20.958C21.182 0.0553699 21.3334 0.204661 21.3334 0.42866V3.21877C21.3334 3.55578 21.2587 3.75206 20.9601 3.93121L19.1875 4.99779C19.1698 5.01007 19.1489 5.01914 19.1278 5.01914C19.1067 5.01914 19.0851 5.00207 19.0851 4.94022V1.6851C19.0851 1.64668 19.0745 1.6211 19.0489 1.6211C19.0302 1.6211 19.0124 1.63068 18.9976 1.64246L14.1384 4.79949C14.0274 4.87414 13.8973 4.9147 13.7651 4.91256H10.544C10.3179 4.91256 10.1686 4.76327 10.1686 4.53713V0.51622C10.1686 0.486362 10.1558 0.458646 10.1302 0.458646C10.1115 0.458646 10.0938 0.468409 10.079 0.479999L6.873 2.40397C6.841 2.42532 6.83249 2.44025 6.83249 2.45518C6.83249 2.46797 6.83892 2.48075 6.86021 2.50425L9.15117 4.79307C9.18103 4.82292 9.20238 4.84642 9.20238 4.87199C9.20238 4.89335 9.16824 4.91042 9.12774 4.91042H7.05857C6.89643 4.91042 6.77057 4.88692 6.68314 4.79949L5.29448 3.41297C5.28383 3.40025 5.26853 3.39162 5.25183 3.39162C5.23678 3.39162 5.2221 3.39672 5.20919 3.40441L2.88837 4.79949C2.74758 4.88485 2.65158 4.90828 2.51294 4.90828H0.377697C0.149476 4.91042 0.00012207 4.75899 0.00012207 4.53499V1.79817C0.00012207 1.45902 0.0747676 1.26488 0.375555 1.08573L2.15886 0.0149291C2.17272 0.00550027 2.18903 0.00031267 2.20579 0C2.23351 0 2.24843 0.0277163 2.24843 0.0895745V3.75426C2.24843 3.79269 2.25694 3.8097 2.28472 3.8097C2.30362 3.8097 2.321 3.79905 2.33807 3.78834L8.362 0.164157C8.47722 0.0852284 8.618 0.0468662 8.75879 0.0532284H12.0011C12.2251 0.0532284 12.3766 0.202519 12.3766 0.426519L12.3744 4.44321H12.3764Z" fill="var(--fill-0, #131E29)"/>
</g>
<defs>
<clipPath id="clip0_0_4">
<rect width="21.3333" height="5.01921" fill="white"/>
</clipPath>
</defs>
</svg>
