<svg preserveAspectRatio="none" width="100%" height="100%" overflow="visible" style="display: block;" viewBox="0 0 20.2667 20.2664" fill="none" xmlns="http://www.w3.org/2000/svg">
<g id="layer1">
<path id="path3524" fill-rule="evenodd" clip-rule="evenodd" d="M14.8363 1.1488C18.0627 2.8456 20.2667 6.22853 20.2667 10.128C20.2667 14.0275 18.0627 17.4211 14.8363 19.1075V17.948C16.0701 17.2099 17.1139 16.1771 17.8733 14.9547L14.8363 13.7219V11.8459L18.1683 14.4491C18.8643 13.1632 19.2544 11.6981 19.2544 10.1277C19.2544 6.8184 17.4827 3.90987 14.8363 2.30773V1.1488ZM10.144 0C11.8312 0 13.4232 0.4112 14.8363 1.1488V2.30827C13.5392 1.528 12.0208 1.06453 10.4181 1.01173L11.5779 9.30613L14.8363 11.8461V13.7221L10.1227 11.8144L5.4408 13.7325V11.8669L8.72027 9.30587L9.8696 1.01147C8.2456 1.06427 6.73787 1.528 5.4408 2.30773V1.1488C6.84347 0.4112 8.44613 0 10.144 0ZM14.8363 19.1075C13.4232 19.8451 11.8309 20.2664 10.144 20.2664C8.4464 20.2664 6.84373 19.8451 5.44107 19.1179V17.948C6.812 18.7803 8.42507 19.2547 10.144 19.2547C11.8523 19.2547 13.4552 18.7803 14.8363 17.948V19.1075ZM5.44107 19.1179C2.20373 17.4211 0 14.0275 0 10.128C0 6.22853 2.20373 2.8456 5.44107 1.1488V2.30827C2.78373 3.91013 1.01227 6.80827 1.01227 10.128C1.01227 11.6981 1.41307 13.1845 2.10907 14.4701L5.44107 11.8669V13.7325L2.41467 14.9757C3.17387 16.1883 4.2072 17.2101 5.44107 17.948V19.1179Z" fill="var(--fill-0, #4D4D4D)"/>
</g>
</svg>
