<svg preserveAspectRatio="none" width="100%" height="100%" overflow="visible" style="display: block;" viewBox="0 0 21.3333 16.5774" fill="none" xmlns="http://www.w3.org/2000/svg">
<g id="Group">
<path id="Vector" d="M10.6668 15.617C6.62589 15.617 3.33815 12.3293 3.33815 8.28831C3.33815 8.07977 3.34886 7.87361 3.36674 7.66985L9.49315 8.05237L6.84167 9.88517C6.80592 9.91019 6.78209 9.95191 6.78209 9.99838C6.78209 10.0746 6.84405 10.1378 6.92032 10.1378H17.7598C16.9375 13.2861 14.069 15.6172 10.6669 15.6172M10.6669 0.959478C14.7091 0.959478 17.9956 4.24721 17.9956 8.28816C17.9956 8.49552 17.9849 8.7005 17.9682 8.90307H17.9646L11.8382 8.51337L14.4968 6.69131C14.5338 6.6663 14.5564 6.62457 14.5564 6.5781C14.5564 6.50064 14.4944 6.43867 14.4182 6.43867H3.57507C4.39614 3.29035 7.26459 0.959311 10.6667 0.959311M21.1736 9.10681L19.168 8.97931L18.9261 8.96381C18.944 8.74097 18.9559 8.51572 18.9559 8.28814C18.9559 3.71819 15.2378 0 10.6666 0C6.7318 0 3.43185 2.75637 2.58834 6.4385H0.756725C0.653051 6.4385 0.561291 6.48736 0.502898 6.56363L0.0345587 7.21071C0.0131123 7.2381 0 7.27268 0 7.30962C0 7.3978 0.0715004 7.4693 0.160877 7.4693L2.15814 7.59324L2.40839 7.60993C2.39052 7.83397 2.37862 8.0592 2.37862 8.28801C2.37862 12.858 6.09681 16.5774 10.6668 16.5774C14.6015 16.5774 17.9027 13.8198 18.745 10.1376H20.5778C20.6815 10.1376 20.7732 10.0888 20.8316 10.0125L21.3 9.36543C21.3214 9.33804 21.3333 9.30347 21.3333 9.26652C21.3333 9.17834 21.2618 9.10684 21.1736 9.10684" fill="var(--fill-0, #121312)"/>
</g>
</svg>
